<svg width="20" height="20" viewBox="0 0 20 20" fill="none" xmlns="http://www.w3.org/2000/svg">
<path d="M13.1075 3.23649C14.3028 2.03658 16.0512 2.01138 17.0191 2.98303C17.9887 3.95651 17.9627 5.71587 16.7666 6.9166L14.7467 8.94428C14.5032 9.18886 14.5039 9.58461 14.7484 9.82819C14.993 10.0718 15.3887 10.071 15.6323 9.82644L17.6522 7.79877C19.2449 6.19984 19.4449 3.64707 17.9047 2.10086C16.3626 0.552817 13.8155 0.754578 12.2219 2.35432L8.18221 6.40971C6.58947 8.00863 6.38951 10.5614 7.92973 12.1076C8.17333 12.3522 8.56907 12.3529 8.81357 12.1094C9.05816 11.8658 9.05891 11.47 8.81532 11.2254C7.84561 10.252 7.87173 8.49261 9.06782 7.29187L13.1075 3.23649Z" fill="#2D2C36"/>
<path d="M12.0707 7.89192C11.8271 7.64737 11.4313 7.64661 11.1868 7.89021C10.9423 8.13382 10.9415 8.52956 11.1851 8.77406C12.1548 9.74756 12.1287 11.5069 10.9326 12.7076L6.89291 16.7631C5.69763 17.963 3.94923 17.9882 2.98135 17.0166C2.01162 16.0431 2.03775 14.2836 3.23383 13.0829L5.2537 11.0552C5.49731 10.8106 5.49654 10.415 5.25199 10.1713C5.00744 9.92772 4.61171 9.92847 4.36811 10.1731L2.34824 12.2007C0.755486 13.7997 0.555519 16.3525 2.09575 17.8987C3.63781 19.4467 6.18493 19.245 7.7785 17.6452L11.8182 13.5898C13.4109 11.9909 13.6109 9.43814 12.0707 7.89192Z" fill="#2D2C36"/>
</svg>
