<svg width="40" height="40" viewBox="0 0 40 40" fill="none" xmlns="http://www.w3.org/2000/svg">
<path fill-rule="evenodd" clip-rule="evenodd" d="M23.0057 8.88856C23.0057 5.82031 25.5043 3.33301 28.5865 3.33301C31.6687 3.33301 34.1673 5.82031 34.1673 8.88856C34.1673 11.9568 31.6687 14.4441 28.5865 14.4441C27.0302 14.4441 25.6237 13.8096 24.6125 12.7888L16.8868 18.0488C16.9582 18.4038 16.9957 18.7705 16.9957 19.145C16.9957 19.8867 16.849 20.5957 16.5833 21.2437L25.0545 26.8093C26.016 26.0265 27.2462 25.5552 28.5865 25.5552C31.6687 25.5552 34.1673 28.0425 34.1673 31.1108C34.1673 34.179 31.6687 36.6663 28.5865 36.6663C25.5043 36.6663 23.0057 34.179 23.0057 31.1108C23.0057 30.3072 23.1777 29.5422 23.4868 28.8515L15.0841 23.3308C14.1039 24.1827 12.82 24.7005 11.4148 24.7005C8.3326 24.7005 5.83398 22.2132 5.83398 19.145C5.83398 16.0767 8.3326 13.5894 11.4148 13.5894C13.1872 13.5894 14.7649 14.4118 15.7864 15.6916L23.2738 10.5937C23.0997 10.0557 23.0057 9.48234 23.0057 8.88856Z" fill="#2D2C36"/>
</svg>
