<svg width="32" height="33" viewBox="0 0 32 33" fill="none" xmlns="http://www.w3.org/2000/svg">
<path d="M30.5629 11.4764C31.5629 12.2428 31.7629 13.6799 30.9629 14.6379L20.1629 27.8586L16.4629 25.1761L27.2629 11.9554C28.0629 10.9016 29.5629 10.71 30.5629 11.4764Z" fill="#FFDD67"/>
<path d="M8.4625 19.1405L4.5625 16.2664L16.8625 1.22552C17.6625 0.1717 19.2625 -0.0199038 20.3625 0.842314C21.4625 1.60873 21.6625 3.14156 20.7625 4.19538L8.4625 19.1405Z" fill="#FFDD67"/>
<path d="M20.3625 0.746446L20.6625 1.03385C19.6625 0.554842 18.2625 0.746446 17.5625 1.60866L5.2625 16.7454L4.5625 16.2664L16.8625 1.22546C17.6625 0.171634 19.2625 -0.0199699 20.3625 0.746446Z" fill="#EBA352"/>
<path d="M16.4629 25.1761L12.4629 22.2062L25.0629 6.7821C25.9629 5.72827 27.5629 5.53667 28.6629 6.30309C29.7629 7.1653 29.9629 8.69814 29.0629 9.75196L16.4629 25.1761Z" fill="#FFDD67"/>
<path d="M28.6629 6.30309L28.9629 6.59049C27.8629 6.01568 26.5629 6.30309 25.7629 7.26111L17.9629 16.8413L16.4629 17.3203L25.0629 6.7821C25.8629 5.72827 27.5629 5.53667 28.6629 6.30309Z" fill="#EBA352"/>
<path d="M13.4629 20.8646L9.46289 17.8947L22.0629 2.47057C22.9629 1.41675 24.5629 1.22515 25.6629 1.99156C26.7629 2.85378 26.9629 4.38661 26.0629 5.44044L13.4629 20.8646Z" fill="#FFDD67"/>
<path d="M25.6629 2.0876L25.9629 2.375C24.8629 1.80019 23.5629 2.0876 22.7629 3.04561L13.9629 13.8712L12.4629 14.3503L22.0629 2.56661C22.8629 1.41698 24.5629 1.22538 25.6629 2.0876Z" fill="#EBA352"/>
<path d="M30.5625 11.4759L30.8625 11.7633C29.8625 11.2843 28.6625 11.5717 27.9625 12.434L21.5625 20.2897L20.0625 20.7687L27.2625 11.9549C28.0625 10.9011 29.5625 10.7095 30.5625 11.4759Z" fill="#EBA352"/>
<path d="M1.16246 3.62036C3.06246 2.75815 5.36246 4.57839 5.66246 8.98528C5.86246 12.0509 5.76246 12.8174 7.46246 14.0628L8.96246 12.2425C8.96246 12.2425 23.8625 23.4514 22.8625 24.601C22.8625 24.601 19.4625 30.1575 15.4625 32.1694C9.46246 35.235 -1.23754 28.3373 0.662459 17.5117C1.96246 10.9971 -0.837541 4.48258 1.16246 3.62036Z" fill="#FFDD67"/>
<path d="M1.16325 3.62032C1.56325 3.42871 1.86325 3.42871 2.26325 3.42871C2.16325 3.42871 2.06325 3.52451 1.96325 3.52451C-0.0367506 4.48253 1.06325 7.8356 1.46325 10.7097C1.76325 13.0089 1.96325 15.404 1.36325 17.4158C-1.23675 26.6128 7.46325 33.1273 13.7632 32.6483C7.46325 33.7979 -2.13675 27.0918 0.56325 17.5116C1.16325 15.404 0.96325 13.2005 0.66325 10.8055C0.26325 7.8356 -0.83675 4.48253 1.16325 3.62032Z" fill="#EBA352"/>
<path d="M7.0625 13.5835C10.5625 14.7331 14.8625 20.8644 9.7625 25.5587C13.7625 20.6728 10.1625 15.9785 7.5625 14.0625L7.0625 13.5835Z" fill="#EBA352"/>
</svg>
