<svg width="50" height="50" viewBox="0 0 50 50" fill="none" xmlns="http://www.w3.org/2000/svg">
<rect opacity="0.15" width="50" height="50" rx="12" fill="#F05D6B"/>
<path fill-rule="evenodd" clip-rule="evenodd" d="M27.6111 30.2804L28.3791 34.1204H29.8001C30.0652 34.1204 30.2801 34.3353 30.2801 34.6004C30.2801 34.8655 30.0652 35.0804 29.8001 35.0804H20.2001C19.935 35.0804 19.7201 34.8655 19.7201 34.6004C19.7201 34.3353 19.935 34.1204 20.2001 34.1204H21.8321L22.6001 30.2804H18.2801C16.5874 30.2804 15.187 29.0287 14.9541 27.4004H35.046C34.8131 29.0287 33.4128 30.2804 31.7201 30.2804H27.6111Z" fill="white"/>
<path d="M14.9199 26.4399V16.3599C14.9199 15.5646 15.5646 14.9199 16.3599 14.9199H33.6399C34.4352 14.9199 35.0799 15.5646 35.0799 16.3599V26.4399H14.9199Z" fill="#F05D6B"/>
</svg>
