<svg width="49" height="50" viewBox="0 0 49 50" fill="none" xmlns="http://www.w3.org/2000/svg">
<rect opacity="0.15" x="-1" width="50" height="50" rx="12" fill="#F05D6B"/>
<path d="M12.9473 27.8985C12.4241 27.8985 12 27.4744 12 26.9512C12 26.428 12.4241 26.0039 12.9473 26.0039H35.0525C35.5757 26.0039 35.9998 26.428 35.9998 26.9512C35.9998 27.4744 35.5757 27.8985 35.0525 27.8985H12.9473Z" fill="#F05D6B"/>
<path d="M24.0027 22.8414C21.5612 22.8414 19.582 20.8622 19.582 18.4207C19.582 15.9792 21.5612 14 24.0027 14C26.4442 14 28.4234 15.9792 28.4234 18.4207C28.4234 20.8622 26.4442 22.8414 24.0027 22.8414Z" fill="#F05D6B"/>
<path d="M24.0026 19.0521C24.3514 19.0521 24.6341 18.7694 24.6341 18.4206C24.6341 18.0718 24.3514 17.7891 24.0026 17.7891C23.6538 17.7891 23.3711 18.0718 23.3711 18.4206C23.3711 18.7694 23.6538 19.0521 24.0026 19.0521Z" fill="#F05D6B"/>
<path d="M21.4763 23.5141C19.8725 26.433 15.328 34.7531 15.1144 35.1434C14.9445 35.4537 14.5529 35.564 14.2461 35.3879C12.1012 34.1569 11.3657 31.4282 12.6017 29.3001L18.3624 19.1406C18.6055 21.0629 19.8087 22.6859 21.4763 23.5141Z" fill="white"/>
<path d="M29.6396 19.1367L35.3986 29.2964C36.636 31.4297 35.9016 34.1577 33.7596 35.3886C33.4525 35.5651 33.0603 35.4545 32.8906 35.1436C29.0249 28.0609 27.3132 24.928 26.5312 23.5119C28.1971 22.6821 29.3982 21.0587 29.6396 19.1367V19.1367Z" fill="white"/>
</svg>
