<svg width="25" height="25" viewBox="0 0 25 25" fill="none" xmlns="http://www.w3.org/2000/svg">
<path d="M7.22708 4.69043C7.95833 4.69043 8.62292 4.75293 9.22708 4.88626C9.82812 5.02168 10.3417 5.23001 10.774 5.52168C11.201 5.81335 11.5375 6.19876 11.774 6.68835C12.0083 7.17793 12.1281 7.7821 12.1281 8.49043C12.1281 9.26126 11.951 9.9071 11.6 10.4279C11.2479 10.9488 10.7281 11.3654 10.0354 11.6988C10.9792 11.9696 11.6771 12.4488 12.1417 13.1258C12.6083 13.8133 12.8344 14.6363 12.8344 15.5842C12.8344 16.3654 12.699 17.0321 12.4073 17.5946C12.1156 18.1675 11.7094 18.6363 11.199 19.0008C10.699 19.3633 10.1052 19.6258 9.45938 19.7998C8.82396 19.9717 8.15521 20.0644 7.46979 20.0644H0V4.69772H7.22708V4.69043ZM17.6458 17.3592C18.1042 17.805 18.7635 18.029 19.6187 18.029C20.2333 18.029 20.7646 17.8748 21.2125 17.5633C21.6542 17.2613 21.9208 16.9279 22.025 16.5842H24.7208C24.301 17.9175 23.6292 18.8758 22.7417 19.4488C21.8563 20.0321 20.7792 20.3133 19.5333 20.3133C18.6615 20.3133 17.8833 20.1779 17.1667 19.8967C16.4656 19.6154 15.875 19.2196 15.375 18.7092C14.8917 18.1988 14.5177 17.5842 14.2531 16.8654C13.9896 16.1467 13.8646 15.355 13.8646 14.5008C13.8646 13.6644 14.0052 12.8967 14.2844 12.1779C14.5656 11.4488 14.9552 10.8446 15.451 10.3133C15.9667 9.7821 16.5583 9.38105 17.2594 9.0696C17.9604 8.75814 18.7177 8.61856 19.5719 8.61856C20.5198 8.61856 21.3323 8.78939 22.051 9.16335C22.749 9.51751 23.3219 10.0175 23.7802 10.6217C24.2385 11.2321 24.5615 11.9342 24.7594 12.7258C24.9573 13.5071 25.0198 14.33 24.9781 15.205H16.9677C16.9677 16.08 17.2594 16.905 17.7073 17.3561L17.624 17.3873L17.6458 17.3592ZM6.97917 17.4113C7.30937 17.4113 7.625 17.38 7.92292 17.3144C8.225 17.2519 8.49375 17.1425 8.71771 17.0019C8.93646 16.8613 9.12396 16.6602 9.25937 16.3946C9.39479 16.1446 9.45729 15.8008 9.45729 15.3946C9.45729 14.6133 9.22812 14.0508 8.79062 13.7071C8.34271 13.3738 7.75937 13.2071 7.03021 13.2071H3.375V17.4258H6.97917V17.3946V17.4113ZM21.1531 11.5258C20.7865 11.1248 20.174 10.9092 19.4271 10.9092C18.9396 10.9092 18.5365 10.9863 18.2125 11.1571C17.8979 11.3133 17.6396 11.5217 17.4417 11.7717C17.2437 12.0217 17.1115 12.2717 17.0333 12.5529C16.9552 12.8238 16.9083 13.0738 16.8927 13.2925H21.8531C21.7802 12.5113 21.5094 11.9383 21.1448 11.5321V11.5425L21.1531 11.5258ZM6.79167 10.8852C7.38958 10.8852 7.88542 10.7456 8.27604 10.4561C8.66562 10.1748 8.85312 9.70606 8.85312 9.0623C8.85312 8.70397 8.78021 8.41126 8.66562 8.18106C8.53021 7.95189 8.35312 7.77481 8.14479 7.64772C7.92604 7.51856 7.67604 7.42897 7.39479 7.38001C7.11354 7.32481 6.81146 7.30293 6.51979 7.30293H3.36458V10.8863H6.79167V10.8852ZM16.2687 5.72064H22.4854V7.23522H16.2687V5.70814V5.71855V5.72064Z" fill="white"/>
</svg>
