<svg width="47" height="47" viewBox="0 0 47 47" fill="none" xmlns="http://www.w3.org/2000/svg">
<path d="M13.5869 8.81836C14.9617 8.81836 16.2111 8.93586 17.3469 9.18653C18.4769 9.44111 19.4423 9.83278 20.255 10.3811C21.058 10.9294 21.6905 11.654 22.135 12.5744C22.5757 13.4949 22.8009 14.6307 22.8009 15.9624C22.8009 17.4115 22.468 18.6257 21.808 19.6049C21.1461 20.584 20.1689 21.3674 18.8666 21.994C20.6408 22.5032 21.9529 23.404 22.8263 24.6769C23.7037 25.9694 24.1286 27.5165 24.1286 29.2986C24.1286 30.7674 23.874 32.0207 23.3257 33.0782C22.7774 34.1553 22.0136 35.0365 21.054 35.7219C20.114 36.4034 18.9978 36.8969 17.7836 37.224C16.589 37.5471 15.3318 37.7214 14.0432 37.7214H0V8.83207H13.5869V8.81836ZM33.1742 32.6356C34.0358 33.4738 35.2755 33.8948 36.8832 33.8948C38.0387 33.8948 39.0374 33.605 39.8795 33.0194C40.7098 32.4515 41.2112 31.8249 41.407 31.1786H46.4752C45.686 33.6853 44.4228 35.4869 42.7543 36.564C41.0897 37.6607 39.0648 38.1894 36.7227 38.1894C35.0835 38.1894 33.6207 37.9349 32.2733 37.4061C30.9554 36.8774 29.845 36.1332 28.905 35.1736C27.9963 34.214 27.2933 33.0586 26.7959 31.7074C26.3004 30.3561 26.0654 28.8678 26.0654 27.2619C26.0654 25.6894 26.3298 24.2461 26.8546 22.8949C27.3834 21.524 28.1158 20.3882 29.048 19.3894C30.0173 18.3907 31.1297 17.6367 32.4476 17.0512C33.7656 16.4657 35.1893 16.2032 36.7951 16.2032C38.5772 16.2032 40.1047 16.5244 41.456 17.2274C42.768 17.8933 43.8451 18.8333 44.7068 19.9691C45.5685 21.1167 46.1755 22.4366 46.5476 23.9249C46.9197 25.3937 47.0372 26.9408 46.9589 28.5858H31.8993C31.8993 30.2308 32.4476 31.7818 33.2897 32.6297L33.133 32.6885L33.1742 32.6356ZM13.1208 32.7335C13.7416 32.7335 14.335 32.6748 14.8951 32.5514C15.463 32.4339 15.9683 32.2283 16.3893 31.9639C16.8005 31.6995 17.153 31.3216 17.4076 30.8222C17.6622 30.3522 17.7797 29.7059 17.7797 28.9422C17.7797 27.4734 17.3489 26.4159 16.5264 25.7697C15.6843 25.143 14.5876 24.8297 13.2168 24.8297H6.345V32.7609H13.1208V32.7022V32.7335ZM39.7679 21.6689C39.0785 20.915 37.927 20.5096 36.5229 20.5096C35.6064 20.5096 34.8485 20.6545 34.2395 20.9757C33.6481 21.2694 33.1624 21.6611 32.7903 22.1311C32.4182 22.6011 32.1695 23.0711 32.0227 23.5999C31.8758 24.109 31.7877 24.579 31.7583 24.9903H41.0839C40.9468 23.5215 40.4376 22.4444 39.7522 21.6807V21.7003L39.7679 21.6689ZM12.7683 20.4646C13.8924 20.4646 14.8246 20.2022 15.559 19.6577C16.2914 19.129 16.6439 18.2477 16.6439 17.0375C16.6439 16.3638 16.5068 15.8135 16.2914 15.3807C16.0368 14.9499 15.7039 14.617 15.3122 14.3781C14.901 14.1352 14.431 13.9668 13.9022 13.8748C13.3735 13.771 12.8055 13.7299 12.2572 13.7299H6.32542V20.4665H12.7683V20.4646ZM30.5852 10.7552H42.2726V13.6026H30.5852V10.7317V10.7512V10.7552Z" fill="white"/>
</svg>
