<svg width="1607" height="1113" viewBox="0 0 1607 1113" fill="none" xmlns="http://www.w3.org/2000/svg">
<path opacity="0.8" d="M1709.27 -61.4803C1705.64 -63.8275 1699.75 -63.8275 1696.12 -61.4803C1693.39 -59.7199 1692.72 -57.1445 1694.1 -54.9929L1490.37 75.8635V241.048L1440.74 272.93V452.589L1270.74 561.799L1244.25 544.782L1375.34 460.576V362.091L1374.81 361.765L1225.77 266.019V232.604L1310.06 178.456C1313.69 180.151 1318.79 179.955 1322.07 177.869C1325.71 175.522 1325.71 171.74 1322.07 169.425C1318.44 167.078 1312.55 167.078 1308.92 169.425C1305.64 171.544 1305.34 174.804 1307.98 177.152L1223.69 231.3V267.388L1224.21 267.714L1373.26 363.461V459.272L1274.23 522.907V481.864L1319.64 452.687C1323.28 454.382 1328.37 454.186 1331.66 452.1C1335.29 449.753 1335.29 445.971 1331.66 443.657C1328.02 441.309 1322.13 441.309 1318.5 443.657C1315.22 445.776 1314.93 449.036 1317.56 451.383L1272.15 480.56V524.276L1242.2 543.51L1206.78 520.756V449.297L1273.58 406.362V356.973L1273.06 356.647L1132.39 266.28C1135.02 263.933 1134.73 260.673 1131.45 258.554C1127.82 256.207 1121.93 256.207 1118.29 258.554C1114.66 260.901 1114.66 264.683 1118.29 266.997C1121.57 269.116 1126.67 269.279 1130.31 267.584L1271.47 358.277V404.993L1206.75 446.591V397.332L1206.22 397.006L1120.17 341.716C1122.81 339.369 1122.51 336.109 1119.23 333.99C1115.6 331.643 1109.71 331.643 1106.08 333.99C1102.44 336.337 1102.44 340.119 1106.08 342.434C1109.36 344.553 1114.45 344.716 1118.09 343.02L1204.67 398.636V519.354L1179.79 503.38L1138.8 529.721L1101.68 505.857V447.895L1101.15 447.569L1003 384.52V329.883C1005.02 329.752 1006.98 329.198 1008.54 328.187C1012.17 325.84 1012.17 322.059 1008.54 319.744C1004.9 317.397 999.013 317.397 995.38 319.744C991.746 322.091 991.746 325.873 995.38 328.187C996.933 329.198 998.896 329.72 1000.92 329.883V385.857L1001.44 386.183L1099.6 449.231V504.521L939.856 401.896V293.11L1026.5 237.462H1106.02L1106.25 237.299L1242.7 149.67C1246.33 151.365 1251.43 151.169 1254.71 149.083C1258.35 146.736 1258.35 142.954 1254.71 140.64C1251.08 138.292 1245.19 138.292 1241.56 140.64C1238.28 142.759 1237.98 146.019 1240.62 148.366L1105.46 235.18H1030.1L1280.76 74.1683C1284.39 75.8635 1289.49 75.6679 1292.77 73.5815C1296.41 71.2343 1296.41 67.4527 1292.77 65.1381C1289.14 62.7909 1283.25 62.7909 1279.62 65.1381C1276.34 67.2571 1276.04 70.5171 1278.68 72.8643L937.776 291.838V403.298L938.303 403.624L1136.75 531.09L1096.82 556.746L757.991 339.108V209.23L757.464 208.904L642.227 134.902C644.864 132.555 644.571 129.295 641.289 127.176C637.656 124.829 631.767 124.829 628.133 127.176C624.5 129.523 624.5 133.305 628.133 135.619C631.415 137.738 636.513 137.901 640.146 136.206L755.881 210.567V340.445L756.409 340.771L1094.71 558.083L1056.68 582.5L721.6 367.242H521.774L396.898 287.014V163.72C398.216 163.427 399.447 162.971 400.502 162.319C404.135 159.971 404.135 156.19 400.502 153.875C396.869 151.528 390.979 151.528 387.346 153.875C383.713 156.222 383.713 160.004 387.346 162.319C389.397 163.623 392.151 164.177 394.818 164.014V288.35L395.345 288.676L521.247 369.557H721.073L1003.94 551.269H947.035L850.491 489.264H776.128L775.893 489.427L672.757 555.67C669.124 553.975 664.026 554.171 660.744 556.257C657.111 558.604 657.111 562.386 660.744 564.7C664.378 567.048 670.267 567.048 673.9 564.7C677.182 562.581 677.475 559.321 674.838 556.974L776.684 491.546H849.934L946.478 553.551H1007.54L1054.62 583.804L953.129 649.004L924.269 630.455V581.783L850.872 534.676C853.509 532.329 853.216 529.069 849.934 526.95C846.301 524.602 840.412 524.602 836.779 526.95C833.146 529.297 833.146 533.078 836.779 535.393C840.06 537.512 845.159 537.675 848.792 535.98L922.1 583.087V629.085L843.899 578.849H806.863L806.629 579.012L762.474 607.374C758.841 605.679 753.743 605.874 750.461 607.961C746.828 610.308 746.828 614.089 750.461 616.404C754.094 618.751 759.983 618.751 763.617 616.404C766.898 614.285 767.191 611.025 764.554 608.678L807.42 581.131H843.313L950.931 650.243L931.388 662.794L993.768 702.859L964.556 721.637H920.372L888.757 701.327C891.277 699.012 890.925 695.785 887.702 693.699C884.069 691.352 878.18 691.352 874.546 693.699C870.913 696.046 870.913 699.827 874.546 702.142C877.857 704.261 883.043 704.424 886.706 702.664L919.815 723.919H960.952L886.442 771.776L711.17 659.175H585.033L584.799 659.338L513.776 704.946C510.142 703.25 505.044 703.446 501.763 705.532C498.129 707.88 498.129 711.661 501.763 713.976C505.396 716.323 511.285 716.323 514.918 713.976C518.2 711.857 518.493 708.597 515.856 706.25L585.59 661.457H710.584L845.774 748.304H787.906L731.357 711.987C733.994 709.64 733.701 706.38 730.42 704.261C726.786 701.914 720.897 701.914 717.264 704.261C713.631 706.608 713.631 710.39 717.264 712.704C720.546 714.823 725.644 714.987 729.277 713.291L787.35 750.618H849.378L884.333 773.08L795.349 830.227H510.963L290.011 688.287C292.648 685.94 292.355 682.68 289.074 680.561C285.441 678.214 279.551 678.214 275.918 680.561C272.285 682.908 272.285 686.69 275.918 689.004C279.2 691.123 284.298 691.286 287.931 689.591L510.406 832.509H791.745L756.438 855.199H545.918L545.683 855.362L441.873 922.062C438.24 920.366 433.142 920.562 429.86 922.648C426.227 924.996 426.227 928.777 429.86 931.092C433.494 933.439 439.383 933.439 443.016 931.092C446.298 928.973 446.591 925.713 443.954 923.366L546.504 857.514H757.024L757.259 857.351L995.848 704.098L1022.34 721.115L771.498 882.257H588.051L587.817 882.42L366.25 1024.75H59.2739L0 986.805V989.478L58.7758 1027.23H366.865L367.1 1027.07L506.158 937.742V990.619L414.507 1049.49C410.874 1047.8 405.776 1048 402.494 1050.08C398.861 1052.43 398.861 1056.21 402.494 1058.53C406.127 1060.87 412.017 1060.87 415.65 1058.53C418.931 1056.41 419.224 1053.15 416.587 1050.8L508.238 991.923V936.699H507.769L588.696 884.702H772.143L772.377 884.539L1024.5 722.582L1054.59 741.914L565.402 1056.15V1112.93H567.482V1057.48L1056.68 743.251L1093.86 767.146L841.525 929.234V958.215L796.784 986.968V1053.64L710.027 1109.38C706.394 1107.69 701.296 1107.88 698.014 1109.97C696.695 1110.82 695.846 1111.86 695.494 1112.97H713.631C713.367 1112.15 712.869 1111.4 712.107 1110.72L798.865 1054.97V988.305L841.525 960.888V1067.62L866.694 1083.79L821.279 1113H825.44L868.716 1085.19L911.992 1113H916.152L843.518 1066.35V930.635L1095.85 768.548L1129.69 790.292L951.107 905.012C947.474 903.317 942.376 903.512 939.094 905.599C935.461 907.946 935.461 911.727 939.094 914.042C942.728 916.389 948.617 916.389 952.25 914.042C955.532 911.923 955.825 908.663 953.188 906.316L1131.77 791.596L1164.44 812.591L950.814 949.804H892.771C892.419 948.696 891.57 947.62 890.222 946.74C886.589 944.393 880.699 944.393 877.066 946.74C873.433 949.087 873.433 952.869 877.066 955.183C880.699 957.53 886.589 957.53 890.222 955.183C891.57 954.303 892.419 953.227 892.771 952.119H951.371L951.605 951.956L1166.49 813.927L1179.68 822.403L1189.81 815.883L1241 848.744V894.515L1198.72 921.67V921.54H1132.36L1132.12 921.703L1059.31 968.484C1055.68 966.789 1050.58 966.984 1047.3 969.071C1043.67 971.418 1043.67 975.2 1047.3 977.514C1050.93 979.861 1056.82 979.861 1060.45 977.514C1063.74 975.395 1064.03 972.135 1061.39 969.788L1132.91 923.855H1195.29L1070.97 1003.69C1067.31 1001.87 1062.07 1002 1058.7 1004.15C1055.06 1006.5 1055.06 1010.28 1058.7 1012.59C1062.33 1014.94 1068.22 1014.94 1071.85 1012.59C1075.05 1010.54 1075.43 1007.38 1073 1005.03L1228.05 905.436V927.441L1135.81 986.708V1028.53L1060.72 1076.78C1057.09 1075.09 1051.99 1075.28 1048.71 1077.37C1045.07 1079.72 1045.07 1083.5 1048.71 1085.81C1052.34 1088.16 1058.23 1088.16 1061.86 1085.81C1065.14 1083.69 1065.44 1080.43 1062.8 1078.09L1137.89 1029.84V988.011L1230.13 928.745V904.066L1243.05 895.753V847.31L1191.87 814.449L1225.5 792.835L1330.81 860.48V937.384L1259.28 983.317C1255.62 981.491 1250.38 981.622 1247.01 983.773C1243.37 986.121 1243.37 989.902 1247.01 992.217C1250.64 994.564 1256.53 994.564 1260.16 992.217C1263.36 990.163 1263.74 987.001 1261.31 984.654L1330.78 940.024V1002.16L1275.9 1037.43V1112.87H1277.98V1038.77L1330.78 1004.83V1112.84H1332.86V859.111L1227.55 791.466L1265.32 767.212L1402.97 855.623V1066.22L1469.13 1108.73V1112.87H1471.21V1107.39L1405.05 1064.88V854.286L1267.4 765.875L1295.38 747.88L1481.14 867.196V1046.85L1584.02 1113H1588.18L1483.4 1045.68V866.022L1297.64 746.706L1342.99 717.562L1652.08 916.096V1005.48L1758 1073.52V1070.85L1654.16 1004.15V914.759L1480.32 803.072H1617.8L1758 893.145V890.472L1618.36 800.757H1476.72L1345.1 716.225L1397.84 682.354L1510.97 755.019H1692.63L1758 797.008V794.335L1743.67 785.142H1758V782.827H1740.07L1693.19 752.705H1511.53L1479.86 732.362H1557.09L1557.32 732.199L1596.06 707.325H1757.47L1758 707.684V705.011H1599.66L1643.26 677.008C1646.89 678.703 1651.99 678.507 1655.27 676.421C1658.91 674.073 1658.91 670.292 1655.27 667.977C1651.64 665.63 1645.75 665.63 1642.12 667.977C1638.84 670.096 1638.54 673.356 1641.18 675.703L1556.5 730.113H1476.22L1399.87 681.083L1428.08 662.957L1409.92 651.286H1462.69L1531.66 695.589C1529.02 697.937 1529.31 701.197 1532.6 703.316C1536.23 705.663 1542.12 705.663 1545.75 703.316C1549.38 700.968 1549.38 697.187 1545.75 694.872C1542.47 692.753 1537.37 692.59 1533.74 694.285L1463.24 649.004H1406.31L1367.69 624.195L1391.43 608.939H1433.53L1470.57 585.141H1498.2L1560.61 625.239C1557.79 627.586 1558.03 630.944 1561.37 633.095C1565 635.442 1570.89 635.442 1574.52 633.095C1578.16 630.748 1578.16 626.966 1574.52 624.652C1571.3 622.598 1566.35 622.37 1562.72 623.935L1498.75 582.859H1470.01L1432.98 606.657H1395.03L1470.95 557.887H1511.94L1597.38 612.753H1757.97V610.438H1597.93L1512.5 555.572H1470.39L1470.16 555.735L1365.61 622.891L1338.19 605.287L1456.33 529.395H1539.66L1608.39 573.535H1758V571.22H1608.98L1543.85 529.395H1758V527.08H1455.8L1455.57 527.243L1336.17 603.951L1304.99 583.935L1469.72 478.115H1758V475.8H1547.92L1758 340.836V338.163L1543.76 475.8H1471.24L1627.41 375.49V353.387L1702.15 305.4C1705.79 307.095 1710.89 306.9 1714.17 304.813C1717.8 302.466 1717.8 298.684 1714.17 296.37C1710.53 294.023 1704.64 294.023 1701.01 296.37C1697.73 298.489 1697.44 301.749 1700.07 304.096L1659.38 330.241V269.638L1758 206.068V203.395L1657.27 268.106V331.382L1625.3 351.92V374.023L1467.84 475.181L1468.37 476.191L1302.88 582.5L1272.79 563.168L1442.79 453.958V274.3L1758 71.7885V69.1153L1492.45 239.711V77.2001L1695.71 -53.3629C1695.85 -53.2651 1695.97 -53.1347 1696.12 -53.0369C1699.75 -50.6897 1705.64 -50.6897 1709.27 -53.0369C1712.91 -55.3841 1712.91 -59.1657 1709.27 -61.4803ZM1423.95 662.892L1179.76 819.763L935.608 662.924L1179.79 506.053L1423.95 662.892Z" fill="url(#paint0_radial_1689_4322)"/>
<defs>
<radialGradient id="paint0_radial_1689_4322" cx="0" cy="0" r="1" gradientUnits="userSpaceOnUse" gradientTransform="translate(1796.09 114.116) rotate(180) scale(1287.27 1432.25)">
<stop stop-color="#F9BBC9"/>
<stop offset="0.0301" stop-color="#FC8196"/>
<stop offset="0.2023" stop-color="#FC8196"/>
<stop offset="0.3737" stop-color="#FC8196"/>
<stop offset="0.5413" stop-color="#D7E9FF"/>
<stop offset="0.7039" stop-color="#F9BBC9"/>
<stop offset="0.8594" stop-color="#FC8196"/>
<stop offset="1" stop-color="#D7E9FF"/>
</radialGradient>
</defs>
</svg>
