<svg width="50" height="50" viewBox="0 0 50 50" fill="none" xmlns="http://www.w3.org/2000/svg">
<path d="M18.5267 24.7224C16.9457 22.4343 16.0052 19.6735 15.8112 19.439C18.1267 17.8247 22.6552 15.7962 22.9088 12.8855C23.2314 9.12474 16.86 1.26283 15.6386 1.19141C12.2957 1.22712 6.17786 6.88426 5.45286 8.59379C4.10524 12.1283 4.7731 15.4176 7.08977 20.1795C10.0398 27.2628 20.9969 40.6997 27.2648 44.9176C31.4124 48.1009 34.4421 49.3509 38.06 48.5962C39.7421 48.2771 45.8172 43.2926 46.4255 39.9224C46.5743 38.6724 39.5124 30.3855 35.86 30.0569C33.0243 29.795 30.3052 34.0402 28.3564 36.1152C28.1624 35.8676 26.5005 34.5712 24.7171 32.5188C22.3957 30.0795 20.2386 27.214 18.5267 24.7224Z" fill="white"/>
</svg>
