<svg width="50" height="50" viewBox="0 0 50 50" fill="none" xmlns="http://www.w3.org/2000/svg">
<g clip-path="url(#clip0_1761_7408)">
<path d="M42.1266 26.2113C41.4577 26.2113 40.9155 25.669 40.9155 25.0001C40.9155 24.3313 41.4577 23.789 42.1266 23.789H43.4065C43.1328 19.5862 41.4456 15.7633 38.8163 12.7912L37.936 13.6717C37.6995 13.9082 37.3894 14.0266 37.0796 14.0266C36.7697 14.0266 36.4599 13.9082 36.2234 13.6719C35.7503 13.199 35.7503 12.4321 36.2232 11.9592L37.0975 11.0848C34.1416 8.51193 30.3613 6.86412 26.2113 6.59375V7.87372C26.2113 8.54257 25.669 9.08483 25.0001 9.08483C24.3313 9.08483 23.789 8.54257 23.789 7.87372V6.59375C19.6235 6.86513 15.8308 8.52439 12.8702 11.1138L13.8207 12.0643C14.2936 12.5374 14.2936 13.304 13.8207 13.7771C13.5842 14.0134 13.2741 14.1318 12.9643 14.1318C12.6544 14.1318 12.3444 14.0134 12.1079 13.7771L11.1549 12.8241C8.54207 15.7914 6.86648 19.6018 6.59375 23.789H8.02254C8.69139 23.789 9.23365 24.3313 9.23365 25.0001C9.23365 25.669 8.69139 26.2113 8.02254 26.2113H6.59375C6.86412 30.3614 8.51193 34.1417 11.0848 37.0975L12.1077 36.0744C12.5808 35.6013 13.3473 35.6015 13.8204 36.0742C14.2934 36.5471 14.2934 37.314 13.8205 37.7868L12.7911 38.8163C15.7631 41.4456 19.586 43.1328 23.7889 43.4065V41.9778C23.7889 41.3089 24.3311 40.7666 25 40.7666C25.6688 40.7666 26.2111 41.3089 26.2111 41.9778V43.4065C30.3985 43.1338 34.2087 41.4582 37.1761 38.8454L36.223 37.8924C35.7501 37.4193 35.7501 36.6527 36.223 36.1796C36.6961 35.7069 37.4628 35.7069 37.9358 36.1796L38.8863 37.1301C41.4757 34.1695 43.1352 30.3767 43.4064 26.2113H42.1266ZM33.1414 26.2113H25.0001C24.3313 26.2113 23.789 25.669 23.789 25.0001V13.2847C23.789 12.6158 24.3313 12.0735 25.0001 12.0735C25.669 12.0735 26.2113 12.6158 26.2113 13.2847V23.7892H33.1414C33.8102 23.7892 34.3525 24.3315 34.3525 25.0003C34.3525 25.6692 33.8102 26.2113 33.1414 26.2113Z" fill="white"/>
<path d="M25 0C11.215 0 0 11.215 0 25C0 38.785 11.215 50 25 50C38.785 50 50 38.785 50 25C50 11.215 38.785 0 25 0ZM25 45.8694C13.4926 45.8694 4.13064 36.5074 4.13064 25C4.13064 13.4926 13.4926 4.13064 25 4.13064C36.5074 4.13064 45.8694 13.4926 45.8694 25C45.8694 36.5074 36.5074 45.8694 25 45.8694Z" fill="white"/>
</g>
<defs>
<clipPath id="clip0_1761_7408">
<rect width="50" height="50" fill="white"/>
</clipPath>
</defs>
</svg>
