<svg width="392" height="366" viewBox="0 0 392 366" fill="none" xmlns="http://www.w3.org/2000/svg">
<g opacity="0.2">
<circle cx="2.5" cy="2.5" r="2.5" transform="matrix(-1 0 0 1 392 0)" fill="#D9D9D9"/>
<circle cx="2.5" cy="2.5" r="2.5" transform="matrix(-1 0 0 1 362 0)" fill="#D9D9D9"/>
<circle cx="2.5" cy="2.5" r="2.5" transform="matrix(-1 0 0 1 332 0)" fill="#D9D9D9"/>
<circle cx="2.5" cy="2.5" r="2.5" transform="matrix(-1 0 0 1 302 0)" fill="#D9D9D9"/>
<circle cx="2.5" cy="2.5" r="2.5" transform="matrix(-1 0 0 1 272 0)" fill="#D9D9D9"/>
<circle cx="2.5" cy="2.5" r="2.5" transform="matrix(-1 0 0 1 242 0)" fill="#D9D9D9"/>
<circle cx="2.5" cy="2.5" r="2.5" transform="matrix(-1 0 0 1 212 0)" fill="#D9D9D9"/>
<circle cx="2.5" cy="2.5" r="2.5" transform="matrix(-1 0 0 1 182 0)" fill="#D9D9D9"/>
<circle cx="2.5" cy="2.5" r="2.5" transform="matrix(-1 0 0 1 152 0)" fill="#D9D9D9"/>
<circle cx="2.5" cy="2.5" r="2.5" transform="matrix(-1 0 0 1 122 0)" fill="#D9D9D9"/>
<circle cx="2.5" cy="2.5" r="2.5" transform="matrix(-1 0 0 1 392 30)" fill="#D9D9D9"/>
<circle cx="2.5" cy="2.5" r="2.5" transform="matrix(-1 0 0 1 362 30)" fill="#D9D9D9"/>
<circle cx="2.5" cy="2.5" r="2.5" transform="matrix(-1 0 0 1 332 30)" fill="#D9D9D9"/>
<circle cx="2.5" cy="2.5" r="2.5" transform="matrix(-1 0 0 1 302 30)" fill="#D9D9D9"/>
<circle cx="2.5" cy="2.5" r="2.5" transform="matrix(-1 0 0 1 272 30)" fill="#D9D9D9"/>
<circle cx="2.5" cy="2.5" r="2.5" transform="matrix(-1 0 0 1 242 30)" fill="#D9D9D9"/>
<circle cx="2.5" cy="2.5" r="2.5" transform="matrix(-1 0 0 1 212 30)" fill="#D9D9D9"/>
<circle cx="2.5" cy="2.5" r="2.5" transform="matrix(-1 0 0 1 182 30)" fill="#D9D9D9"/>
<circle cx="2.5" cy="2.5" r="2.5" transform="matrix(-1 0 0 1 152 30)" fill="#D9D9D9"/>
<circle cx="2.5" cy="2.5" r="2.5" transform="matrix(-1 0 0 1 122 30)" fill="#D9D9D9"/>
<circle cx="2.5" cy="2.5" r="2.5" transform="matrix(-1 0 0 1 392 60)" fill="#D9D9D9"/>
<circle cx="2.5" cy="2.5" r="2.5" transform="matrix(-1 0 0 1 362 60)" fill="#D9D9D9"/>
<circle cx="2.5" cy="2.5" r="2.5" transform="matrix(-1 0 0 1 332 60)" fill="#D9D9D9"/>
<circle cx="2.5" cy="2.5" r="2.5" transform="matrix(-1 0 0 1 302 60)" fill="#D9D9D9"/>
<circle cx="2.5" cy="2.5" r="2.5" transform="matrix(-1 0 0 1 272 60)" fill="#D9D9D9"/>
<circle cx="2.5" cy="2.5" r="2.5" transform="matrix(-1 0 0 1 242 60)" fill="#D9D9D9"/>
<circle cx="2.5" cy="2.5" r="2.5" transform="matrix(-1 0 0 1 212 60)" fill="#D9D9D9"/>
<circle cx="2.5" cy="2.5" r="2.5" transform="matrix(-1 0 0 1 182 60)" fill="#D9D9D9"/>
<circle cx="2.5" cy="2.5" r="2.5" transform="matrix(-1 0 0 1 152 60)" fill="#D9D9D9"/>
<circle cx="2.5" cy="2.5" r="2.5" transform="matrix(-1 0 0 1 122 60)" fill="#D9D9D9"/>
<circle cx="2.5" cy="2.5" r="2.5" transform="matrix(-1 0 0 1 392 90)" fill="#D9D9D9"/>
<circle cx="2.5" cy="2.5" r="2.5" transform="matrix(-1 0 0 1 362 90)" fill="#D9D9D9"/>
<circle cx="2.5" cy="2.5" r="2.5" transform="matrix(-1 0 0 1 332 90)" fill="#D9D9D9"/>
<circle cx="2.5" cy="2.5" r="2.5" transform="matrix(-1 0 0 1 302 90)" fill="#D9D9D9"/>
<circle cx="2.5" cy="2.5" r="2.5" transform="matrix(-1 0 0 1 272 90)" fill="#D9D9D9"/>
<circle cx="2.5" cy="2.5" r="2.5" transform="matrix(-1 0 0 1 242 90)" fill="#D9D9D9"/>
<circle cx="2.5" cy="2.5" r="2.5" transform="matrix(-1 0 0 1 212 90)" fill="#D9D9D9"/>
<circle cx="2.5" cy="2.5" r="2.5" transform="matrix(-1 0 0 1 182 90)" fill="#D9D9D9"/>
<circle cx="2.5" cy="2.5" r="2.5" transform="matrix(-1 0 0 1 152 90)" fill="#D9D9D9"/>
<circle cx="2.5" cy="2.5" r="2.5" transform="matrix(-1 0 0 1 122 90)" fill="#D9D9D9"/>
<circle cx="2.5" cy="2.5" r="2.5" transform="matrix(-1 0 0 1 392 120)" fill="#D9D9D9"/>
<circle cx="2.5" cy="2.5" r="2.5" transform="matrix(-1 0 0 1 362 120)" fill="#D9D9D9"/>
<circle cx="2.5" cy="2.5" r="2.5" transform="matrix(-1 0 0 1 332 120)" fill="#D9D9D9"/>
<circle cx="2.5" cy="2.5" r="2.5" transform="matrix(-1 0 0 1 302 120)" fill="#D9D9D9"/>
<circle cx="2.5" cy="2.5" r="2.5" transform="matrix(-1 0 0 1 272 120)" fill="#D9D9D9"/>
<circle cx="2.5" cy="2.5" r="2.5" transform="matrix(-1 0 0 1 242 120)" fill="#D9D9D9"/>
<circle cx="2.5" cy="2.5" r="2.5" transform="matrix(-1 0 0 1 212 120)" fill="#D9D9D9"/>
<circle cx="2.5" cy="2.5" r="2.5" transform="matrix(-1 0 0 1 182 120)" fill="#D9D9D9"/>
<circle cx="2.5" cy="2.5" r="2.5" transform="matrix(-1 0 0 1 152 120)" fill="#D9D9D9"/>
<circle cx="2.5" cy="2.5" r="2.5" transform="matrix(-1 0 0 1 122 120)" fill="#D9D9D9"/>
<circle cx="2.5" cy="2.5" r="2.5" transform="matrix(-1 0 0 1 392 150)" fill="#D9D9D9"/>
<circle cx="2.5" cy="2.5" r="2.5" transform="matrix(-1 0 0 1 362 150)" fill="#D9D9D9"/>
<circle cx="2.5" cy="2.5" r="2.5" transform="matrix(-1 0 0 1 332 150)" fill="#D9D9D9"/>
<circle cx="2.5" cy="2.5" r="2.5" transform="matrix(-1 0 0 1 302 150)" fill="#D9D9D9"/>
<circle cx="2.5" cy="2.5" r="2.5" transform="matrix(-1 0 0 1 272 150)" fill="#D9D9D9"/>
<circle cx="2.5" cy="2.5" r="2.5" transform="matrix(-1 0 0 1 242 150)" fill="#D9D9D9"/>
<circle cx="2.5" cy="2.5" r="2.5" transform="matrix(-1 0 0 1 212 150)" fill="#D9D9D9"/>
<circle cx="2.5" cy="2.5" r="2.5" transform="matrix(-1 0 0 1 182 150)" fill="#D9D9D9"/>
<circle cx="2.5" cy="2.5" r="2.5" transform="matrix(-1 0 0 1 152 150)" fill="#D9D9D9"/>
<circle cx="2.5" cy="2.5" r="2.5" transform="matrix(-1 0 0 1 122 150)" fill="#D9D9D9"/>
<circle cx="2.5" cy="2.5" r="2.5" transform="matrix(-1 0 0 1 392 180)" fill="#D9D9D9"/>
<circle cx="2.5" cy="2.5" r="2.5" transform="matrix(-1 0 0 1 362 180)" fill="#D9D9D9"/>
<circle cx="2.5" cy="2.5" r="2.5" transform="matrix(-1 0 0 1 332 180)" fill="#D9D9D9"/>
<circle cx="2.5" cy="2.5" r="2.5" transform="matrix(-1 0 0 1 302 180)" fill="#D9D9D9"/>
<circle cx="2.5" cy="2.5" r="2.5" transform="matrix(-1 0 0 1 272 180)" fill="#D9D9D9"/>
<circle cx="2.5" cy="2.5" r="2.5" transform="matrix(-1 0 0 1 242 180)" fill="#D9D9D9"/>
<circle cx="2.5" cy="2.5" r="2.5" transform="matrix(-1 0 0 1 212 180)" fill="#D9D9D9"/>
<circle cx="2.5" cy="2.5" r="2.5" transform="matrix(-1 0 0 1 182 180)" fill="#D9D9D9"/>
<circle cx="2.5" cy="2.5" r="2.5" transform="matrix(-1 0 0 1 152 180)" fill="#D9D9D9"/>
<circle cx="2.5" cy="2.5" r="2.5" transform="matrix(-1 0 0 1 122 180)" fill="#D9D9D9"/>
<circle cx="2.5" cy="2.5" r="2.5" transform="matrix(-1 0 0 1 392 210)" fill="#D9D9D9"/>
<circle cx="2.5" cy="2.5" r="2.5" transform="matrix(-1 0 0 1 362 210)" fill="#D9D9D9"/>
<circle cx="2.5" cy="2.5" r="2.5" transform="matrix(-1 0 0 1 332 210)" fill="#D9D9D9"/>
<circle cx="2.5" cy="2.5" r="2.5" transform="matrix(-1 0 0 1 302 210)" fill="#D9D9D9"/>
<circle cx="2.5" cy="2.5" r="2.5" transform="matrix(-1 0 0 1 272 210)" fill="#D9D9D9"/>
<circle cx="2.5" cy="2.5" r="2.5" transform="matrix(-1 0 0 1 242 210)" fill="#D9D9D9"/>
<circle cx="2.5" cy="2.5" r="2.5" transform="matrix(-1 0 0 1 212 210)" fill="#D9D9D9"/>
<circle cx="2.5" cy="2.5" r="2.5" transform="matrix(-1 0 0 1 182 210)" fill="#D9D9D9"/>
<circle cx="2.5" cy="2.5" r="2.5" transform="matrix(-1 0 0 1 152 210)" fill="#D9D9D9"/>
<circle cx="2.5" cy="2.5" r="2.5" transform="matrix(-1 0 0 1 122 210)" fill="#D9D9D9"/>
<circle cx="2.5" cy="2.5" r="2.5" transform="matrix(-1 0 0 1 392 240)" fill="#D9D9D9"/>
<circle cx="2.5" cy="2.5" r="2.5" transform="matrix(-1 0 0 1 362 240)" fill="#D9D9D9"/>
<circle cx="2.5" cy="2.5" r="2.5" transform="matrix(-1 0 0 1 332 240)" fill="#D9D9D9"/>
<circle cx="2.5" cy="2.5" r="2.5" transform="matrix(-1 0 0 1 302 240)" fill="#D9D9D9"/>
<circle cx="2.5" cy="2.5" r="2.5" transform="matrix(-1 0 0 1 272 240)" fill="#D9D9D9"/>
<circle cx="2.5" cy="2.5" r="2.5" transform="matrix(-1 0 0 1 242 240)" fill="#D9D9D9"/>
<circle cx="2.5" cy="2.5" r="2.5" transform="matrix(-1 0 0 1 212 240)" fill="#D9D9D9"/>
<circle cx="2.5" cy="2.5" r="2.5" transform="matrix(-1 0 0 1 182 240)" fill="#D9D9D9"/>
<circle cx="2.5" cy="2.5" r="2.5" transform="matrix(-1 0 0 1 152 240)" fill="#D9D9D9"/>
<circle cx="2.5" cy="2.5" r="2.5" transform="matrix(-1 0 0 1 122 240)" fill="#D9D9D9"/>
<circle cx="2.5" cy="2.5" r="2.5" transform="matrix(-1 0 0 1 392 270)" fill="#D9D9D9"/>
<circle cx="2.5" cy="2.5" r="2.5" transform="matrix(-1 0 0 1 362 270)" fill="#D9D9D9"/>
<circle cx="2.5" cy="2.5" r="2.5" transform="matrix(-1 0 0 1 332 270)" fill="#D9D9D9"/>
<circle cx="2.5" cy="2.5" r="2.5" transform="matrix(-1 0 0 1 302 270)" fill="#D9D9D9"/>
<circle cx="2.5" cy="2.5" r="2.5" transform="matrix(-1 0 0 1 272 270)" fill="#D9D9D9"/>
<circle cx="2.5" cy="2.5" r="2.5" transform="matrix(-1 0 0 1 242 270)" fill="#D9D9D9"/>
<circle cx="2.5" cy="2.5" r="2.5" transform="matrix(-1 0 0 1 212 270)" fill="#D9D9D9"/>
<circle cx="2.5" cy="2.5" r="2.5" transform="matrix(-1 0 0 1 182 270)" fill="#D9D9D9"/>
<circle cx="2.5" cy="2.5" r="2.5" transform="matrix(-1 0 0 1 152 270)" fill="#D9D9D9"/>
<circle cx="2.5" cy="2.5" r="2.5" transform="matrix(-1 0 0 1 122 270)" fill="#D9D9D9"/>
<circle cx="2.5" cy="2.5" r="2.5" transform="matrix(-1 0 0 1 392 300)" fill="#D9D9D9"/>
<circle cx="2.5" cy="2.5" r="2.5" transform="matrix(-1 0 0 1 362 300)" fill="#D9D9D9"/>
<circle cx="2.5" cy="2.5" r="2.5" transform="matrix(-1 0 0 1 332 300)" fill="#D9D9D9"/>
<circle cx="2.5" cy="2.5" r="2.5" transform="matrix(-1 0 0 1 302 300)" fill="#D9D9D9"/>
<circle cx="2.5" cy="2.5" r="2.5" transform="matrix(-1 0 0 1 272 300)" fill="#D9D9D9"/>
<circle cx="2.5" cy="2.5" r="2.5" transform="matrix(-1 0 0 1 242 300)" fill="#D9D9D9"/>
<circle cx="2.5" cy="2.5" r="2.5" transform="matrix(-1 0 0 1 212 300)" fill="#D9D9D9"/>
<circle cx="2.5" cy="2.5" r="2.5" transform="matrix(-1 0 0 1 182 300)" fill="#D9D9D9"/>
<circle cx="2.5" cy="2.5" r="2.5" transform="matrix(-1 0 0 1 152 300)" fill="#D9D9D9"/>
<circle cx="2.5" cy="2.5" r="2.5" transform="matrix(-1 0 0 1 122 300)" fill="#D9D9D9"/>
</g>
<g opacity="0.2">
<circle cx="2.5" cy="2.5" r="2.5" transform="matrix(-1 0 0 1 92 0)" fill="#D9D9D9"/>
<circle cx="2.5" cy="2.5" r="2.5" transform="matrix(-1 0 0 1 62 0)" fill="#D9D9D9"/>
<circle cx="2.5" cy="2.5" r="2.5" transform="matrix(-1 0 0 1 32 0)" fill="#D9D9D9"/>
<circle cx="2.5" cy="2.5" r="2.5" transform="matrix(-1 0 0 1 2 0)" fill="#D9D9D9"/>
<circle cx="2.5" cy="2.5" r="2.5" transform="matrix(-1 0 0 1 92 30)" fill="#D9D9D9"/>
<circle cx="2.5" cy="2.5" r="2.5" transform="matrix(-1 0 0 1 62 30)" fill="#D9D9D9"/>
<circle cx="2.5" cy="2.5" r="2.5" transform="matrix(-1 0 0 1 32 30)" fill="#D9D9D9"/>
<circle cx="2.5" cy="2.5" r="2.5" transform="matrix(-1 0 0 1 2 30)" fill="#D9D9D9"/>
<circle cx="2.5" cy="2.5" r="2.5" transform="matrix(-1 0 0 1 92 60)" fill="#D9D9D9"/>
<circle cx="2.5" cy="2.5" r="2.5" transform="matrix(-1 0 0 1 62 60)" fill="#D9D9D9"/>
<circle cx="2.5" cy="2.5" r="2.5" transform="matrix(-1 0 0 1 32 60)" fill="#D9D9D9"/>
<circle cx="2.5" cy="2.5" r="2.5" transform="matrix(-1 0 0 1 2 60)" fill="#D9D9D9"/>
<circle cx="2.5" cy="2.5" r="2.5" transform="matrix(-1 0 0 1 92 90)" fill="#D9D9D9"/>
<circle cx="2.5" cy="2.5" r="2.5" transform="matrix(-1 0 0 1 62 90)" fill="#D9D9D9"/>
<circle cx="2.5" cy="2.5" r="2.5" transform="matrix(-1 0 0 1 32 90)" fill="#D9D9D9"/>
<circle cx="2.5" cy="2.5" r="2.5" transform="matrix(-1 0 0 1 2 90)" fill="#D9D9D9"/>
<circle cx="2.5" cy="2.5" r="2.5" transform="matrix(-1 0 0 1 92 120)" fill="#D9D9D9"/>
<circle cx="2.5" cy="2.5" r="2.5" transform="matrix(-1 0 0 1 62 120)" fill="#D9D9D9"/>
<circle cx="2.5" cy="2.5" r="2.5" transform="matrix(-1 0 0 1 32 120)" fill="#D9D9D9"/>
<circle cx="2.5" cy="2.5" r="2.5" transform="matrix(-1 0 0 1 2 120)" fill="#D9D9D9"/>
<circle cx="2.5" cy="2.5" r="2.5" transform="matrix(-1 0 0 1 92 150)" fill="#D9D9D9"/>
<circle cx="2.5" cy="2.5" r="2.5" transform="matrix(-1 0 0 1 62 150)" fill="#D9D9D9"/>
<circle cx="2.5" cy="2.5" r="2.5" transform="matrix(-1 0 0 1 32 150)" fill="#D9D9D9"/>
<circle cx="2.5" cy="2.5" r="2.5" transform="matrix(-1 0 0 1 2 150)" fill="#D9D9D9"/>
<circle cx="2.5" cy="2.5" r="2.5" transform="matrix(-1 0 0 1 92 180)" fill="#D9D9D9"/>
<circle cx="2.5" cy="2.5" r="2.5" transform="matrix(-1 0 0 1 62 180)" fill="#D9D9D9"/>
<circle cx="2.5" cy="2.5" r="2.5" transform="matrix(-1 0 0 1 32 180)" fill="#D9D9D9"/>
<circle cx="2.5" cy="2.5" r="2.5" transform="matrix(-1 0 0 1 2 180)" fill="#D9D9D9"/>
<circle cx="2.5" cy="2.5" r="2.5" transform="matrix(-1 0 0 1 92 210)" fill="#D9D9D9"/>
<circle cx="2.5" cy="2.5" r="2.5" transform="matrix(-1 0 0 1 62 210)" fill="#D9D9D9"/>
<circle cx="2.5" cy="2.5" r="2.5" transform="matrix(-1 0 0 1 32 210)" fill="#D9D9D9"/>
<circle cx="2.5" cy="2.5" r="2.5" transform="matrix(-1 0 0 1 2 210)" fill="#D9D9D9"/>
<circle cx="2.5" cy="2.5" r="2.5" transform="matrix(-1 0 0 1 92 240)" fill="#D9D9D9"/>
<circle cx="2.5" cy="2.5" r="2.5" transform="matrix(-1 0 0 1 62 240)" fill="#D9D9D9"/>
<circle cx="2.5" cy="2.5" r="2.5" transform="matrix(-1 0 0 1 32 240)" fill="#D9D9D9"/>
<circle cx="2.5" cy="2.5" r="2.5" transform="matrix(-1 0 0 1 2 240)" fill="#D9D9D9"/>
<circle cx="2.5" cy="2.5" r="2.5" transform="matrix(-1 0 0 1 92 270)" fill="#D9D9D9"/>
<circle cx="2.5" cy="2.5" r="2.5" transform="matrix(-1 0 0 1 62 270)" fill="#D9D9D9"/>
<circle cx="2.5" cy="2.5" r="2.5" transform="matrix(-1 0 0 1 32 270)" fill="#D9D9D9"/>
<circle cx="2.5" cy="2.5" r="2.5" transform="matrix(-1 0 0 1 2 270)" fill="#D9D9D9"/>
<circle cx="2.5" cy="2.5" r="2.5" transform="matrix(-1 0 0 1 92 300)" fill="#D9D9D9"/>
<circle cx="2.5" cy="2.5" r="2.5" transform="matrix(-1 0 0 1 62 300)" fill="#D9D9D9"/>
<circle cx="2.5" cy="2.5" r="2.5" transform="matrix(-1 0 0 1 32 300)" fill="#D9D9D9"/>
<circle cx="2.5" cy="2.5" r="2.5" transform="matrix(-1 0 0 1 2 300)" fill="#D9D9D9"/>
</g>
</svg>
