<svg width="47" height="47" viewBox="0 0 47 47" fill="none" xmlns="http://www.w3.org/2000/svg">
<path d="M12.387 25.0322H17.5389V46.2419C17.5389 46.6607 17.8782 47 18.297 47H27.0323C27.4511 47 27.7904 46.6607 27.7904 46.2419V25.1321H33.713C34.0981 25.1321 34.4221 24.8431 34.4661 24.4606L35.3656 16.6523C35.3903 16.4374 35.3222 16.2223 35.1785 16.0611C35.0346 15.8998 34.8287 15.8075 34.6127 15.8075H27.7907V10.9128C27.7907 9.4373 28.5851 8.68909 30.1522 8.68909C30.3755 8.68909 34.6127 8.68909 34.6127 8.68909C35.0314 8.68909 35.3707 8.34963 35.3707 7.93102V0.763674C35.3707 0.344919 35.0314 0.00560968 34.6127 0.00560968H28.4655C28.4222 0.0034871 28.3259 0 28.184 0C27.1174 0 23.41 0.209377 20.4814 2.90354C17.2366 5.8891 17.6877 9.46383 17.7955 10.0836V15.8073H12.387C11.9682 15.8073 11.6289 16.1466 11.6289 16.5654V24.274C11.6289 24.6927 11.9682 25.0322 12.387 25.0322Z" fill="white"/>
</svg>
