<svg width="25" height="25" viewBox="0 0 25 25" fill="none" xmlns="http://www.w3.org/2000/svg">
<path d="M6.58877 13.315H9.32918V24.5968C9.32918 24.8195 9.50966 25 9.7324 25H14.3789C14.6016 25 14.7821 24.8195 14.7821 24.5968V13.3681H17.9324C18.1372 13.3681 18.3096 13.2144 18.333 13.011L18.8114 8.85758C18.8246 8.74331 18.7884 8.62887 18.7119 8.54315C18.6354 8.45734 18.5259 8.40823 18.4109 8.40823H14.7822V5.80468C14.7822 5.01984 15.2048 4.62185 16.0384 4.62185C16.1572 4.62185 18.4109 4.62185 18.4109 4.62185C18.6337 4.62185 18.8142 4.44129 18.8142 4.21863V0.40621C18.8142 0.183468 18.6337 0.00298387 18.4109 0.00298387H15.1412C15.1181 0.00185484 15.0669 0 14.9914 0C14.4241 0 12.4521 0.111371 10.8943 1.54444C9.16837 3.1325 9.40829 5.03395 9.46563 5.36363V8.40814H6.58877C6.36603 8.40814 6.18555 8.58863 6.18555 8.81137V12.9117C6.18555 13.1344 6.36603 13.315 6.58877 13.315Z" fill="white"/>
</svg>
