<svg width="47" height="47" viewBox="0 0 47 47" fill="none" xmlns="http://www.w3.org/2000/svg">
<g clip-path="url(#clip0_1761_7371)">
<path d="M32.9984 0H14.0016C6.28106 0 0 6.28106 0 14.0016V32.9984C0 40.7189 6.28106 47 14.0016 47H32.9984C40.7189 47 47 40.7189 47 32.9984V14.0016C46.9999 6.28106 40.7188 0 32.9984 0ZM42.2718 32.9984C42.2718 38.1199 38.1199 42.2718 32.9984 42.2718H14.0016C8.88006 42.2718 4.7282 38.1199 4.7282 32.9984V14.0016C4.7282 8.87998 8.88006 4.7282 14.0016 4.7282H32.9984C38.1199 4.7282 42.2718 8.87998 42.2718 14.0016V32.9984Z" fill="white"/>
<path d="M23.4996 11.3438C16.7969 11.3438 11.3438 16.7969 11.3438 23.4995C11.3438 30.2022 16.7969 35.6554 23.4996 35.6554C30.2024 35.6554 35.6555 30.2023 35.6555 23.4995C35.6555 16.7968 30.2024 11.3438 23.4996 11.3438ZM23.4996 30.9273C19.3974 30.9273 16.0719 27.6018 16.0719 23.4996C16.0719 19.3974 19.3975 16.0719 23.4996 16.0719C27.6018 16.0719 30.9273 19.3974 30.9273 23.4996C30.9273 27.6018 27.6018 30.9273 23.4996 30.9273Z" fill="white"/>
<path d="M35.6793 14.3489C37.288 14.3489 38.592 13.0448 38.592 11.4361C38.592 9.8275 37.288 8.52344 35.6793 8.52344C34.0707 8.52344 32.7666 9.8275 32.7666 11.4361C32.7666 13.0448 34.0707 14.3489 35.6793 14.3489Z" fill="white"/>
</g>
<defs>
<clipPath id="clip0_1761_7371">
<rect width="47" height="47" fill="white"/>
</clipPath>
</defs>
</svg>
