<svg width="47" height="47" viewBox="0 0 47 47" fill="none" xmlns="http://www.w3.org/2000/svg">
<g clip-path="url(#clip0_1761_7379)">
<path d="M10.9405 15.1191H1.50513C1.08638 15.1191 0.74707 15.4586 0.74707 15.8772V46.1889C0.74707 46.6076 1.08638 46.9469 1.50513 46.9469H10.9405C11.3592 46.9469 11.6985 46.6076 11.6985 46.1889V15.8772C11.6985 15.4586 11.3592 15.1191 10.9405 15.1191Z" fill="white"/>
<path d="M6.22614 0.0507812C2.79301 0.0507812 0 2.84076 0 6.27009C0 9.70094 2.79301 12.492 6.22614 12.492C9.65653 12.492 12.4473 9.70079 12.4473 6.27009C12.4474 2.84076 9.65653 0.0507812 6.22614 0.0507812Z" fill="white"/>
<path d="M34.9398 14.3652C31.1502 14.3652 28.3489 15.9943 26.6498 17.8454V15.8767C26.6498 15.4581 26.3105 15.1186 25.8917 15.1186H16.8557C16.437 15.1186 16.0977 15.4581 16.0977 15.8767V46.1883C16.0977 46.6071 16.437 46.9464 16.8557 46.9464H26.2704C26.6892 46.9464 27.0285 46.6071 27.0285 46.1883V31.1911C27.0285 26.1374 28.4012 24.1685 31.9241 24.1685C35.7608 24.1685 36.0657 27.3248 36.0657 31.4511V46.1885C36.0657 46.6072 36.405 46.9465 36.8237 46.9465H46.2419C46.6607 46.9465 47 46.6072 47 46.1885V29.562C47 22.0473 45.5671 14.3652 34.9398 14.3652Z" fill="white"/>
</g>
<defs>
<clipPath id="clip0_1761_7379">
<rect width="47" height="47" fill="white"/>
</clipPath>
</defs>
</svg>
