<svg width="25" height="25" viewBox="0 0 25 25" fill="none" xmlns="http://www.w3.org/2000/svg">
<g clip-path="url(#clip0_1692_12103)">
<path d="M5.81948 8.04248H0.800687C0.577945 8.04248 0.397461 8.22305 0.397461 8.44571V24.5689C0.397461 24.7917 0.577945 24.9722 0.800687 24.9722H5.81948C6.04222 24.9722 6.2227 24.7917 6.2227 24.5689V8.44571C6.2227 8.22305 6.04222 8.04248 5.81948 8.04248Z" fill="white"/>
<path d="M3.31177 0.0273438C1.48565 0.0273438 0 1.51138 0 3.33549C0 5.16041 1.48565 6.645 3.31177 6.645C5.13645 6.645 6.62089 5.16033 6.62089 3.33549C6.62097 1.51138 5.13645 0.0273438 3.31177 0.0273438Z" fill="white"/>
<path d="M18.5849 7.64209C16.5692 7.64209 15.0791 8.50862 14.1753 9.49322V8.44604C14.1753 8.22338 13.9948 8.04282 13.7721 8.04282H8.96573C8.74298 8.04282 8.5625 8.22338 8.5625 8.44604V24.5693C8.5625 24.792 8.74298 24.9725 8.96573 24.9725H13.9735C14.1963 24.9725 14.3768 24.792 14.3768 24.5693V16.592C14.3768 13.9039 15.1069 12.8566 16.9808 12.8566C19.0216 12.8566 19.1838 14.5355 19.1838 16.7303V24.5693C19.1838 24.7921 19.3643 24.9726 19.587 24.9726H24.5967C24.8194 24.9726 24.9999 24.7921 24.9999 24.5693V15.7255C24.9999 11.7283 24.2377 7.64209 18.5849 7.64209Z" fill="white"/>
</g>
<defs>
<clipPath id="clip0_1692_12103">
<rect width="25" height="25" fill="white"/>
</clipPath>
</defs>
</svg>
