<svg width="50" height="50" viewBox="0 0 50 50" fill="none" xmlns="http://www.w3.org/2000/svg">
<g clip-path="url(#clip0_1761_7416)">
<path d="M25.0003 0C16.9213 0 10.3486 6.57266 10.3486 14.6517C10.3486 16.8549 10.8259 18.9724 11.7667 20.9467C11.7857 20.9889 11.8055 21.0304 11.8268 21.0719L22.8968 42.5058C23.3032 43.2925 24.1147 43.7868 25.0001 43.7868C25.8856 43.7868 26.6971 43.2927 27.1034 42.5058L38.1704 21.0777C38.1895 21.0408 38.2073 21.0035 38.2244 20.9658C39.1715 18.9858 39.6516 16.8619 39.6516 14.6517C39.6519 6.57266 33.0793 0 25.0003 0ZM25.0003 22.3206C20.7716 22.3206 17.3313 18.8803 17.3313 14.6517C17.3313 10.4232 20.7716 6.98286 25.0003 6.98286C29.229 6.98286 32.6693 10.4232 32.6693 14.6517C32.6693 18.8803 29.229 22.3206 25.0003 22.3206Z" fill="white"/>
<path d="M30.6444 47.1602H19.3569C18.5723 47.1602 17.9365 47.7959 17.9365 48.5805C17.9365 49.3651 18.5723 50.0009 19.3569 50.0009H30.6444C31.429 50.0009 32.0647 49.3651 32.0647 48.5805C32.0647 47.7959 31.4288 47.1602 30.6444 47.1602Z" fill="white"/>
</g>
<defs>
<clipPath id="clip0_1761_7416">
<rect width="50" height="50" fill="white"/>
</clipPath>
</defs>
</svg>
