<svg width="50" height="50" viewBox="0 0 50 50" fill="none" xmlns="http://www.w3.org/2000/svg">
<path d="M45.1084 7.06641H4.89102C2.3584 7.06641 0.271484 9.00117 0.0214844 11.4686L21.652 33.099C23.3911 34.8382 26.5106 34.9359 28.4563 32.9903L49.9781 11.4686C49.7279 9.00117 47.641 7.06641 45.1084 7.06641Z" fill="white"/>
<path d="M30.7617 35.2951C29.2204 36.8374 27.1633 37.6866 24.9703 37.6866C22.8463 37.6866 20.7966 36.8556 19.3466 35.4044L0 16.0588V38.0443C0 40.74 2.1957 42.9356 4.89131 42.9356H45.1087C47.8043 42.9356 50 40.74 50 38.0443V16.0586L30.7617 35.2951Z" fill="white"/>
</svg>
