<svg width="47" height="47" viewBox="0 0 47 47" fill="none" xmlns="http://www.w3.org/2000/svg">
<path d="M46.2525 8.50112C45.2082 8.96418 44.1242 9.3295 43.0119 9.59397C44.2375 8.42927 45.1591 6.97248 45.679 5.34643C45.8274 4.88223 45.3232 4.48082 44.904 4.72936C43.3565 5.64724 41.6897 6.33581 39.9496 6.77618C39.8487 6.80174 39.7445 6.81469 39.64 6.81469C39.3231 6.81469 39.0149 6.697 38.7726 6.4834C36.9212 4.85175 34.5402 3.95312 32.0681 3.95312C30.9984 3.95312 29.9184 4.11985 28.8579 4.44873C25.5724 5.46779 23.0373 8.17797 22.2419 11.5217C21.9435 12.7759 21.8627 14.0313 22.0016 15.2528C22.0176 15.3932 21.9512 15.4912 21.9103 15.5371C21.8384 15.6177 21.7366 15.6638 21.6308 15.6638C21.619 15.6638 21.6069 15.6633 21.5948 15.6621C14.4029 14.994 7.9175 11.5291 3.33329 5.90587C3.09953 5.61905 2.65125 5.65423 2.46492 5.97382C1.56722 7.51392 1.09281 9.27541 1.09281 11.0678C1.09281 13.8148 2.19644 16.4035 4.11343 18.2907C3.30728 18.0996 2.52703 17.7986 1.80224 17.396C1.4516 17.2012 1.02016 17.4516 1.01523 17.8526C0.965044 21.9335 3.35426 25.5646 6.93339 27.1997C6.86131 27.2014 6.78924 27.2022 6.71704 27.2022C6.14971 27.2022 5.57526 27.1475 5.00987 27.0394C4.61499 26.964 4.28325 27.3386 4.40586 27.7214C5.56758 31.3484 8.69041 34.0218 12.4274 34.6287C9.32593 36.7107 5.71415 37.809 1.95499 37.809L0.783074 37.8083C0.421998 37.8083 0.116613 38.0437 0.0245969 38.3934C-0.0660444 38.7379 0.100914 39.1012 0.40882 39.2803C4.64478 41.7455 9.47651 43.0484 14.3837 43.0484C18.6792 43.0484 22.6972 42.196 26.3263 40.5149C29.6532 38.9738 32.5931 36.7708 35.0644 33.9671C37.3665 31.3553 39.1668 28.3403 40.4149 25.006C41.6047 21.8276 42.2336 18.4361 42.2336 15.1983V15.044C42.2334 14.5241 42.4686 14.0349 42.8788 13.7019C44.4355 12.438 45.7911 10.9502 46.9078 9.27976C47.2027 8.8387 46.7377 8.28592 46.2525 8.50112Z" fill="white"/>
</svg>
