<svg width="37" height="60" viewBox="0 0 37 60" fill="none" xmlns="http://www.w3.org/2000/svg">
<path d="M27.75 41.2015C27.75 38.58 29.2346 36.1823 31.5841 35.01L37 32.3077L20.8125 0H16.1875L0 32.3077L5.41587 35.01C7.76538 36.1823 9.25 38.58 9.25 41.2015V41.5385H4.625V60H32.375V41.5385H27.75V41.2015ZM7.48325 30.8815L6.20444 30.2446L16.1875 10.32V27.6923H20.8125V10.32L30.7956 30.2423L29.5168 30.8792C25.5739 32.8477 23.125 36.8031 23.125 41.2015V41.5385H13.875V41.2015C13.875 36.8031 11.4261 32.8477 7.48325 30.8815ZM27.75 55.3846H9.25V46.1538H27.75V55.3846Z" fill="white"/>
</svg>
