<svg width="506" height="1223" viewBox="0 0 506 1223" fill="none" xmlns="http://www.w3.org/2000/svg">
<path opacity="0.2" d="M469.386 1.90156C466.656 -0.538803 462.231 -0.538803 459.501 1.90156C457.453 3.73184 456.947 6.40947 457.982 8.64647L304.9 144.697V316.438L267.604 349.586V536.376L139.863 649.921L119.96 632.228L218.462 544.68V442.286L218.066 441.947L106.067 342.401V307.659L169.409 251.361C172.139 253.124 175.97 252.92 178.436 250.751C181.166 248.311 181.166 244.379 178.436 241.973C175.706 239.532 171.281 239.532 168.551 241.973C166.085 244.176 165.865 247.565 167.846 250.006L104.504 306.303V343.824L104.9 344.163L216.899 443.71V543.324L142.483 609.485V566.813L176.609 536.477C179.339 538.24 183.17 538.037 185.635 535.867C188.366 533.427 188.366 529.495 185.635 527.089C182.905 524.648 178.48 524.648 175.75 527.089C173.284 529.292 173.064 532.681 175.045 535.122L140.92 565.457V610.909L118.419 630.906L91.8004 607.248V532.953L141.998 488.314V436.965L141.602 436.626L35.9001 342.672C37.8817 340.231 37.6615 336.842 35.1956 334.639C32.4656 332.198 28.0402 332.198 25.3101 334.639C22.5801 337.079 22.5801 341.011 25.3101 343.417C27.776 345.62 31.6068 345.79 34.3369 344.027L140.413 438.32V486.891L91.7784 530.139V478.926L91.3821 478.587L26.7192 421.102C28.7007 418.662 28.4805 415.273 26.0146 413.069C23.2845 410.629 18.8592 410.629 16.1291 413.069C13.399 415.51 13.399 419.442 16.1291 421.848C18.595 424.051 22.426 424.221 25.156 422.458L90.2152 480.281V605.791L71.5231 589.183L40.7218 616.569L12.8266 591.759V531.495L12.4304 531.156L-61.3254 465.605V408.799C-59.8063 408.663 -58.3312 408.087 -57.1644 407.036C-54.4343 404.596 -54.4343 400.664 -57.1644 398.258C-59.8944 395.817 -64.3198 395.817 -67.0499 398.258C-69.7799 400.698 -69.7799 404.63 -67.0499 407.036C-65.8829 408.087 -64.4078 408.629 -62.8887 408.799V466.995L-62.4924 467.334L11.2635 532.885V590.369L-108.771 483.671V370.566L-43.6682 312.709H16.0851L16.2613 312.54L118.793 221.433C121.523 223.195 125.354 222.992 127.82 220.823C130.55 218.382 130.55 214.451 127.82 212.044C125.09 209.604 120.664 209.604 117.934 212.044C115.468 214.247 115.248 217.637 117.23 220.077L15.6669 310.337H-40.96L147.392 142.934C150.123 144.697 153.953 144.494 156.419 142.324C159.149 139.884 159.149 135.952 156.419 133.546C153.689 131.105 149.264 131.105 146.534 133.546C144.068 135.749 143.848 139.138 145.829 141.579L-110.335 369.245V485.128L-109.938 485.467L39.1805 617.992L9.17188 644.667L-245.429 418.391V283.357L-245.825 283.018L-332.417 206.079C-330.435 203.639 -330.655 200.249 -333.121 198.046C-335.851 195.606 -340.277 195.606 -343.007 198.046C-345.737 200.486 -345.737 204.418 -343.007 206.825C-340.541 209.028 -336.71 209.197 -333.98 207.435L-247.014 284.747V419.781L-246.618 420.119L7.58667 646.057L-20.991 671.443L-272.774 447.641H-422.927L-516.762 364.228V236.041C-515.771 235.736 -514.847 235.262 -514.054 234.584C-511.324 232.143 -511.324 228.212 -514.054 225.805C-516.784 223.365 -521.21 223.365 -523.94 225.805C-526.67 228.246 -526.67 232.177 -523.94 234.584C-522.398 235.939 -520.329 236.516 -518.325 236.346V365.618L-517.929 365.957L-423.324 450.048H-273.17L-60.6209 638.973H-103.377L-175.922 574.507H-231.8L-231.977 574.676L-309.475 643.549C-312.205 641.786 -316.036 641.989 -318.502 644.159C-321.232 646.599 -321.232 650.531 -318.502 652.937C-315.772 655.378 -311.347 655.378 -308.617 652.937C-306.151 650.734 -305.931 647.345 -307.912 644.904L-231.382 576.879H-176.341L-103.796 641.345H-57.9129L-22.5321 672.799L-98.7979 740.587L-120.484 721.301V670.698L-175.636 621.721C-173.655 619.281 -173.875 615.891 -176.341 613.688C-179.071 611.248 -183.496 611.248 -186.226 613.688C-188.956 616.128 -188.956 620.06 -186.226 622.466C-183.76 624.67 -179.929 624.839 -177.199 623.077L-122.114 672.053V719.878L-180.876 667.647H-208.705L-208.881 667.817L-242.06 697.304C-244.79 695.542 -248.621 695.745 -251.087 697.915C-253.817 700.355 -253.817 704.287 -251.087 706.693C-248.357 709.133 -243.932 709.133 -241.202 706.693C-238.736 704.49 -238.516 701.101 -240.497 698.66L-208.287 670.02H-181.316L-100.449 741.875L-115.134 754.924L-68.2607 796.58L-90.2113 816.103H-123.412L-147.169 794.987C-145.275 792.58 -145.539 789.225 -147.961 787.056C-150.691 784.615 -155.116 784.615 -157.847 787.056C-160.577 789.496 -160.577 793.428 -157.847 795.834C-155.359 798.037 -151.462 798.207 -148.71 796.377L-123.831 818.475H-92.9194L-148.908 868.232L-280.611 751.162H-375.393L-375.569 751.331L-428.938 798.749C-431.668 796.987 -435.499 797.19 -437.965 799.359C-440.695 801.8 -440.695 805.731 -437.965 808.138C-435.235 810.578 -430.809 810.578 -428.079 808.138C-425.613 805.935 -425.393 802.545 -427.375 800.105L-374.975 753.535H-281.052L-179.467 843.828H-222.95L-265.442 806.07C-263.461 803.63 -263.681 800.24 -266.147 798.037C-268.877 795.597 -273.302 795.597 -276.032 798.037C-278.762 800.478 -278.762 804.409 -276.032 806.816C-273.566 809.019 -269.735 809.189 -267.005 807.426L-223.368 846.235H-176.759L-150.493 869.588L-217.358 929.004H-431.051L-597.079 781.429C-595.098 778.989 -595.318 775.6 -597.784 773.396C-600.514 770.956 -604.939 770.956 -607.669 773.396C-610.399 775.837 -610.399 779.768 -607.669 782.175C-605.203 784.378 -601.372 784.548 -598.642 782.785L-431.47 931.376H-220.066L-246.596 954.966H-404.785L-404.962 955.136L-482.967 1024.48C-485.697 1022.72 -489.528 1022.92 -491.993 1025.09C-494.724 1027.53 -494.724 1031.47 -491.993 1033.87C-489.263 1036.31 -484.838 1036.31 -482.108 1033.87C-479.642 1031.67 -479.422 1028.28 -481.403 1025.84L-404.345 957.373H-246.155L-245.979 957.203L-66.6975 797.868L-46.7945 815.561L-235.279 983.099H-373.126L-373.302 983.268L-539.792 1131.25H-770.46L-815 1091.8V1094.58L-770.835 1133.83H-539.329L-539.153 1133.66L-434.662 1040.79V1095.76L-503.53 1156.97C-506.26 1155.21 -510.091 1155.42 -512.557 1157.58C-515.287 1160.03 -515.287 1163.96 -512.557 1166.36C-509.827 1168.8 -505.402 1168.8 -502.672 1166.36C-500.206 1164.16 -499.986 1160.77 -501.967 1158.33L-433.099 1097.12V1039.7H-433.451L-372.641 985.641H-234.795L-234.619 985.471L-45.1652 817.086L-22.5542 837.185L-390.144 1163.89V1222.93H-388.581V1165.28L-20.991 838.575L6.94818 863.419L-182.659 1031.94V1062.07L-216.279 1091.97V1161.28L-281.47 1219.24C-284.2 1217.48 -288.031 1217.68 -290.497 1219.85C-291.488 1220.73 -292.126 1221.81 -292.39 1222.97H-278.762C-278.96 1222.12 -279.335 1221.34 -279.907 1220.63L-214.716 1162.67V1093.36L-182.659 1064.85V1175.82L-163.747 1192.63L-197.873 1223H-194.747L-162.228 1194.09L-129.709 1223H-126.583L-181.162 1174.5V1033.4L8.44537 864.876L33.8746 887.484L-100.317 1006.76C-103.047 1004.99 -106.878 1005.2 -109.344 1007.37C-112.074 1009.81 -112.074 1013.74 -109.344 1016.15C-106.614 1018.59 -102.188 1018.59 -99.4583 1016.15C-96.9924 1013.94 -96.7723 1010.55 -98.7538 1008.11L35.4377 888.839L59.9864 910.667L-100.537 1053.33H-144.152C-144.416 1052.17 -145.055 1051.06 -146.068 1050.14C-148.798 1047.7 -153.223 1047.7 -155.953 1050.14C-158.683 1052.58 -158.683 1056.51 -155.953 1058.92C-153.223 1061.36 -148.798 1061.36 -146.068 1058.92C-145.055 1058 -144.416 1056.89 -144.152 1055.73H-100.119L-99.9427 1055.56L61.5275 912.057L71.435 920.869L79.0527 914.09L117.516 948.255V995.843L85.7458 1024.08V1023.94H35.8781L35.702 1024.11L-19.0095 1072.75C-21.7395 1070.99 -25.5704 1071.19 -28.0363 1073.36C-30.7664 1075.8 -30.7664 1079.73 -28.0363 1082.14C-25.3062 1084.58 -20.8809 1084.58 -18.1508 1082.14C-15.6849 1079.93 -15.4647 1076.54 -17.4462 1074.1L36.2964 1026.35H83.1699L-10.2469 1109.35C-12.999 1107.46 -16.9399 1107.59 -19.4718 1109.83C-22.2019 1112.27 -22.2019 1116.2 -19.4718 1118.61C-16.7418 1121.05 -12.3164 1121.05 -9.5863 1118.61C-7.18652 1116.47 -6.90027 1113.18 -8.72766 1110.74L107.785 1007.2V1030.08L38.476 1091.69V1135.18L-17.9527 1185.34C-20.6827 1183.58 -24.5135 1183.78 -26.9794 1185.95C-29.7095 1188.39 -29.7095 1192.33 -26.9794 1194.73C-24.2493 1197.17 -19.8241 1197.17 -17.094 1194.73C-14.6282 1192.53 -14.408 1189.14 -16.3895 1186.7L40.0392 1136.54V1093.05L109.348 1031.43V1005.77L119.057 997.131V946.764L80.594 912.599L105.869 890.127L184.997 960.457V1040.41L131.254 1088.17C128.502 1086.27 124.561 1086.41 122.029 1088.64C119.299 1091.08 119.299 1095.02 122.029 1097.42C124.759 1099.86 129.185 1099.86 131.915 1097.42C134.315 1095.29 134.601 1092 132.773 1089.56L184.975 1043.16V1107.76L143.738 1144.43V1222.86H145.301V1145.82L184.975 1110.54V1222.83H186.538V959.034L107.41 888.704L135.79 863.487L239.224 955.407V1174.36L288.938 1218.56V1222.86H290.501V1217.17L240.787 1172.97V954.017L137.353 862.097L158.379 843.388L297.964 967.44V1154.23L375.265 1223H378.391L299.66 1153.01V966.219L160.074 842.167L194.156 811.866L426.41 1018.28V1111.22L506 1181.95V1179.18L427.973 1109.83V1016.89L297.348 900.77H400.65L506 994.419V991.64L401.069 898.364H294.64L195.741 810.477L235.371 775.261L320.377 850.81H456.881L506 894.466V891.686L495.234 882.128H506V879.722H492.526L457.299 848.404H320.796L296.996 827.254H355.032L355.208 827.085L384.314 801.223H505.604L506 801.596V798.817H387.022L419.783 769.702C422.513 771.465 426.344 771.261 428.81 769.092C431.54 766.651 431.54 762.72 428.81 760.313C426.079 757.873 421.654 757.873 418.924 760.313C416.458 762.516 416.238 765.906 418.22 768.346L354.591 824.915H294.266L236.89 773.939L258.092 755.094L244.442 742.96H284.094L335.921 789.022C333.94 791.462 334.16 794.851 336.626 797.054C339.356 799.495 343.781 799.495 346.511 797.054C349.241 794.614 349.241 790.682 346.511 788.276C344.045 786.073 340.214 785.903 337.484 787.666L284.512 740.587H241.734L212.716 714.794L230.549 698.931H262.187L290.016 674.189H310.778L357.674 715.878C355.56 718.319 355.736 721.81 358.246 724.047C360.976 726.487 365.402 726.487 368.132 724.047C370.862 721.606 370.862 717.675 368.132 715.268C365.71 713.133 361.989 712.896 359.259 714.523L311.196 671.816H289.598L261.769 696.559H233.257L290.303 645.853H321.104L385.305 702.897H505.978V700.49H385.723L321.522 643.447H289.884L289.708 643.616L211.153 713.438L190.545 695.135L279.316 616.23H341.932L393.583 662.122H506V659.716H394.023L345.08 616.23H506V613.824H278.92L278.744 613.993L189.026 693.746L165.6 672.935L289.378 562.915H506V560.508H348.14L506 420.187V417.408L345.014 560.508H290.523L407.872 456.217V433.236L464.036 383.344C466.766 385.107 470.597 384.904 473.063 382.734C475.793 380.294 475.793 376.362 473.063 373.956C470.333 371.515 465.908 371.515 463.177 373.956C460.712 376.159 460.491 379.548 462.473 381.989L431.892 409.172V346.163L506 280.069V277.29L430.307 344.57V410.358L406.286 431.711V454.691L287.969 559.864L288.365 560.915L164.015 671.443L141.404 651.344L269.145 537.799V351.01L506 140.46V137.681L306.463 315.048V146.087L459.193 10.3412C459.303 10.4429 459.391 10.5784 459.501 10.6801C462.231 13.1205 466.656 13.1205 469.386 10.6801C472.116 8.23974 472.116 4.30804 469.386 1.90156ZM254.988 755.026L71.501 918.124L-111.964 755.06L71.5231 591.962L254.988 755.026Z" fill="url(#paint0_radial_1732_38499)" fill-opacity="0.3"/>
<defs>
<radialGradient id="paint0_radial_1732_38499" cx="0" cy="0" r="1" gradientUnits="userSpaceOnUse" gradientTransform="translate(534.622 184.468) rotate(180) scale(967.284 1489.1)">
<stop stop-color="#F9BBC9"/>
<stop offset="0.0301" stop-color="#FC8196"/>
<stop offset="0.2023" stop-color="#FC8196"/>
<stop offset="0.3737" stop-color="#FC8196"/>
<stop offset="0.5413" stop-color="#D7E9FF"/>
<stop offset="0.7039" stop-color="#F9BBC9"/>
<stop offset="0.8594" stop-color="#FC8196"/>
<stop offset="1" stop-color="#D7E9FF"/>
</radialGradient>
</defs>
</svg>
