<svg width="1593" height="1073" viewBox="0 0 1593 1073" fill="none" xmlns="http://www.w3.org/2000/svg">
<path opacity="0.8" d="M1695.66 -65.4538C1692.06 -67.729 1686.22 -67.729 1682.61 -65.4538C1679.91 -63.7474 1679.24 -61.251 1680.61 -59.1654L1478.51 67.677V227.794L1429.27 258.699V432.847L1260.62 538.707L1234.35 522.211L1364.39 440.589V345.125L1363.87 344.809L1216 252V219.61L1299.63 167.122C1303.23 168.765 1308.29 168.576 1311.55 166.553C1315.15 164.278 1315.15 160.613 1311.55 158.369C1307.94 156.094 1302.1 156.094 1298.5 158.369C1295.24 160.423 1294.95 163.583 1297.57 165.858L1213.94 218.346V253.327L1214.46 253.643L1362.33 346.452V439.325L1264.08 501.008V461.223L1309.13 432.941C1312.74 434.585 1317.8 434.395 1321.05 432.373C1324.66 430.097 1324.66 426.432 1321.05 424.188C1317.45 421.913 1311.6 421.913 1308 424.188C1304.74 426.242 1304.45 429.402 1307.07 431.677L1262.02 459.959V502.335L1232.31 520.979L1197.17 498.922V429.655L1263.44 388.038V340.164L1262.92 339.848L1123.37 252.253C1125.98 249.977 1125.69 246.817 1122.44 244.763C1118.83 242.488 1112.99 242.488 1109.39 244.763C1105.78 247.039 1105.78 250.704 1109.39 252.948C1112.64 255.002 1117.7 255.16 1121.3 253.517L1261.35 341.428V386.711L1197.14 427.032V379.285L1196.62 378.969L1111.25 325.375C1113.86 323.1 1113.57 319.94 1110.32 317.886C1106.71 315.611 1100.87 315.611 1097.27 317.886C1093.66 320.161 1093.66 323.827 1097.27 326.07C1100.52 328.124 1105.58 328.282 1109.18 326.639L1195.08 380.549V497.563L1170.4 482.079L1129.73 507.612L1092.91 484.481V428.296L1092.38 427.98L995.01 366.866V313.904C997.016 313.778 998.963 313.241 1000.5 312.261C1004.11 309.986 1004.11 306.32 1000.5 304.077C996.899 301.801 991.057 301.801 987.453 304.077C983.849 306.352 983.849 310.017 987.453 312.261C988.993 313.241 990.941 313.746 992.946 313.904V368.161L993.47 368.477L1090.84 429.592V483.185L932.371 383.709V278.259L1018.32 224.318H1097.21L1097.44 224.16L1232.8 139.219C1236.41 140.863 1241.47 140.673 1244.72 138.651C1248.33 136.375 1248.33 132.71 1244.72 130.466C1241.12 128.191 1235.28 128.191 1231.67 130.466C1228.42 132.52 1228.12 135.68 1230.74 137.955L1096.66 222.106H1021.9L1270.56 66.0338C1274.17 67.677 1279.22 67.4875 1282.48 65.4651C1286.08 63.1898 1286.08 59.5242 1282.48 57.2806C1278.88 55.0054 1273.03 55.0054 1269.43 57.2806C1266.17 59.3346 1265.88 62.4946 1268.5 64.7699L930.308 277.027V385.067L930.831 385.383L1127.7 508.939L1088.08 533.809L751.955 322.847V196.953L751.431 196.637L637.112 124.905C639.728 122.629 639.438 119.469 636.182 117.415C632.578 115.14 626.735 115.14 623.131 117.415C619.527 119.691 619.527 123.356 623.131 125.6C626.387 127.654 631.444 127.812 635.049 126.169L749.862 198.248V324.143L750.385 324.459L1085.99 535.104L1048.26 558.773L715.854 350.118H517.619L393.737 272.35V152.839C395.045 152.555 396.266 152.112 397.312 151.48C400.917 149.205 400.917 145.539 397.312 143.296C393.708 141.021 387.866 141.021 384.261 143.296C380.657 145.571 380.657 149.237 384.261 151.48C386.296 152.744 389.028 153.281 391.673 153.123V273.646L392.197 273.962L517.096 352.361H715.331L995.94 528.5H939.493L843.718 468.397H769.947L769.714 468.555L667.4 532.766C663.795 531.123 658.738 531.312 655.482 533.335C651.878 535.61 651.878 539.275 655.482 541.519C659.087 543.794 664.929 543.794 668.533 541.519C671.789 539.465 672.08 536.305 669.464 534.03L770.499 470.609H843.166L938.941 530.712H999.516L1046.23 560.037L945.539 623.237L916.908 605.256V558.077L844.096 512.415C846.712 510.14 846.421 506.98 843.166 504.926C839.562 502.651 833.719 502.651 830.115 504.926C826.511 507.201 826.511 510.867 830.115 513.111C833.37 515.165 838.428 515.323 842.032 513.679L914.757 559.341V603.929L837.178 555.233H800.438L800.205 555.391L756.402 582.883C752.798 581.24 747.74 581.43 744.485 583.452C740.88 585.727 740.88 589.393 744.485 591.637C748.089 593.912 753.931 593.912 757.535 591.637C760.791 589.583 761.082 586.423 758.466 584.147L800.99 557.445H836.597L943.359 624.437L923.971 636.603L985.854 675.44L956.875 693.641H913.042L881.679 673.955C884.179 671.711 883.83 668.583 880.633 666.56C877.029 664.285 871.186 664.285 867.582 666.56C863.978 668.835 863.978 672.501 867.582 674.745C870.866 676.799 876.011 676.957 879.645 675.25L912.49 695.853H953.299L879.383 742.242L705.506 633.096H580.374L580.142 633.254L509.684 677.462C506.08 675.819 501.022 676.009 497.767 678.031C494.162 680.306 494.162 683.972 497.767 686.215C501.371 688.491 507.213 688.491 510.818 686.215C514.073 684.161 514.364 681.001 511.748 678.726L580.926 635.308H704.925L839.038 719.49H781.632L725.533 684.288C728.149 682.013 727.858 678.853 724.603 676.799C720.999 674.523 715.156 674.523 711.552 676.799C707.948 679.074 707.948 682.739 711.552 684.983C714.807 687.037 719.865 687.195 723.469 685.552L781.079 721.734H842.614L877.29 743.506L789.015 798.901H506.894L287.702 661.315C290.318 659.039 290.027 655.879 286.772 653.825C283.167 651.55 277.325 651.55 273.721 653.825C270.117 656.101 270.117 659.766 273.721 662.01C276.976 664.064 282.034 664.222 285.638 662.579L506.341 801.113H785.44L750.414 823.107H541.57L541.338 823.265L438.354 887.918C434.75 886.275 429.693 886.465 426.437 888.487C422.833 890.762 422.833 894.428 426.437 896.671C430.041 898.947 435.884 898.947 439.488 896.671C442.743 894.617 443.034 891.457 440.418 889.182L542.151 825.35H750.995L751.228 825.192L987.918 676.641L1014.19 693.136L765.354 849.335H583.368L583.135 849.493L363.333 987.458H58.8019L0 950.676V953.267L58.3077 989.86H363.944L364.176 989.702L502.127 903.118V954.373L411.206 1011.44C407.602 1009.8 402.544 1009.99 399.289 1012.01C395.685 1014.29 395.685 1017.95 399.289 1020.2C402.893 1022.47 408.735 1022.47 412.34 1020.2C415.595 1018.14 415.886 1014.98 413.27 1012.71L504.19 955.637V902.107H503.725L584.008 851.705H765.994L766.226 851.547L1016.35 694.558L1046.2 713.297L560.899 1017.89V1072.94H562.963V1019.18L1048.26 714.592L1085.15 737.755L834.824 894.87V922.963L790.439 950.834V1015.46L704.373 1069.49C700.768 1067.85 695.711 1068.04 692.455 1070.06C691.147 1070.88 690.304 1071.89 689.955 1072.97H707.948C707.686 1072.18 707.192 1071.45 706.436 1070.79L792.503 1016.75V952.129L834.824 925.554V1029.01L859.792 1044.69L814.739 1073H818.866L861.798 1046.04L904.729 1073H908.857L836.8 1027.78V896.229L1087.12 739.114L1120.69 760.191L943.533 871.391C939.929 869.748 934.871 869.938 931.616 871.96C928.012 874.235 928.012 877.901 931.616 880.145C935.22 882.42 941.062 882.42 944.667 880.145C947.922 878.091 948.213 874.931 945.597 872.655L1122.76 761.455L1155.17 781.805L943.242 914.81H885.661C885.313 913.735 884.47 912.693 883.133 911.839C879.528 909.564 873.686 909.564 870.082 911.839C866.477 914.115 866.477 917.78 870.082 920.024C873.686 922.299 879.528 922.299 883.133 920.024C884.47 919.171 885.313 918.128 885.661 917.053H943.795L944.027 916.895L1157.2 783.101L1170.28 791.317L1180.34 784.997L1231.12 816.85V861.216L1189.18 887.539V887.413H1123.34L1123.11 887.571L1050.88 932.917C1047.27 931.273 1042.21 931.463 1038.96 933.485C1035.35 935.761 1035.35 939.426 1038.96 941.67C1042.56 943.945 1048.41 943.945 1052.01 941.67C1055.27 939.616 1055.56 936.456 1052.94 934.181L1123.89 889.656H1185.77L1062.44 967.045C1058.81 965.275 1053.61 965.401 1050.27 967.487C1046.66 969.762 1046.66 973.428 1050.27 975.671C1053.87 977.947 1059.71 977.947 1063.32 975.671C1066.49 973.681 1066.86 970.615 1064.45 968.34L1218.27 871.802V893.132L1126.77 950.581V991.124L1052.27 1037.89C1048.67 1036.25 1043.61 1036.44 1040.35 1038.46C1036.75 1040.74 1036.75 1044.4 1040.35 1046.65C1043.96 1048.92 1049.8 1048.92 1053.41 1046.65C1056.66 1044.59 1056.95 1041.43 1054.34 1039.16L1128.83 992.388V951.845L1220.33 894.396V870.475L1233.15 862.417V815.459L1182.37 783.607L1215.74 762.656L1320.21 828.226V902.77L1249.26 947.295C1245.62 945.525 1240.42 945.651 1237.08 947.737C1233.47 950.012 1233.47 953.678 1237.08 955.921C1240.68 958.197 1246.52 958.197 1250.13 955.921C1253.3 953.931 1253.67 950.865 1251.26 948.59L1320.18 905.33V965.559L1265.74 999.751V1072.87H1267.8V1001.05L1320.18 968.151V1072.84H1322.24V826.899L1217.78 761.329L1255.24 737.818L1391.8 823.517V1027.65L1457.43 1068.86V1072.87H1459.5V1067.56L1393.86 1026.36V822.222L1257.31 736.523L1285.07 719.079L1469.35 834.735V1008.88L1571.4 1073H1575.53L1471.59 1007.75V833.598L1287.3 717.942L1332.3 689.691L1638.92 882.135V968.783L1744 1034.73V1032.14L1640.99 967.487V880.84L1468.54 772.578H1604.92L1744 859.889V857.298L1605.47 770.335H1464.96L1334.39 688.396L1386.71 655.563L1498.94 726H1679.15L1744 766.701V764.109L1729.79 755.198H1744V752.955H1726.21L1679.7 723.756H1499.49L1468.07 704.038H1544.69L1544.92 703.88L1583.35 679.769H1743.48L1744 680.117V677.525H1586.92L1630.18 650.381C1633.78 652.024 1638.84 651.835 1642.09 649.812C1645.7 647.537 1645.7 643.871 1642.09 641.628C1638.49 639.353 1632.65 639.353 1629.04 641.628C1625.79 643.682 1625.5 646.842 1628.11 649.117L1544.11 701.857H1464.47L1388.72 654.331L1416.71 636.761L1398.69 625.449H1451.04L1519.46 668.393C1516.84 670.668 1517.13 673.828 1520.39 675.882C1523.99 678.157 1529.84 678.157 1533.44 675.882C1537.05 673.607 1537.05 669.941 1533.44 667.698C1530.19 665.644 1525.13 665.486 1521.52 667.129L1451.59 623.237H1395.11L1356.8 599.189L1380.35 584.4H1422.12L1458.86 561.332H1486.27L1548.18 600.2C1545.39 602.475 1545.62 605.73 1548.93 607.816C1552.54 610.091 1558.38 610.091 1561.98 607.816C1565.59 605.541 1565.59 601.875 1561.98 599.631C1558.79 597.641 1553.87 597.419 1550.27 598.936L1486.82 559.12H1458.3L1421.56 582.188H1383.92L1459.23 534.915H1499.9L1584.66 588.097H1743.97V585.854H1585.21L1500.45 532.671H1458.68L1458.45 532.829L1354.74 597.925L1327.53 580.861L1444.73 507.296H1527.4L1595.59 550.083H1744V547.839H1596.17L1531.55 507.296H1744V505.053H1444.21L1443.97 505.211L1325.53 579.565L1294.6 560.163L1458.01 457.589H1744V455.346H1535.59L1744 324.522V321.931L1531.46 455.346H1459.52L1614.45 358.113V336.688L1688.6 290.173C1692.2 291.816 1697.26 291.626 1700.52 289.604C1704.12 287.329 1704.12 283.663 1700.52 281.419C1696.91 279.144 1691.07 279.144 1687.47 281.419C1684.21 283.473 1683.92 286.633 1686.54 288.909L1646.16 314.252V255.507L1744 193.887V191.296L1644.07 254.022V315.358L1612.36 335.266V356.691L1456.15 454.745L1456.68 455.725L1292.51 558.773L1262.66 540.034L1431.3 434.174V260.026L1744 63.7271V61.1358L1480.57 226.499V68.9726L1682.2 -57.5854C1682.35 -57.4906 1682.47 -57.3642 1682.61 -57.2694C1686.22 -54.9942 1692.06 -54.9942 1695.66 -57.2694C1699.27 -59.5446 1699.27 -63.2102 1695.66 -65.4538ZM1412.61 636.698L1170.37 788.757L928.157 636.73L1170.4 484.671L1412.61 636.698Z" fill="url(#paint0_radial_1782_7443)"/>
<defs>
<radialGradient id="paint0_radial_1782_7443" cx="0" cy="0" r="1" gradientUnits="userSpaceOnUse" gradientTransform="translate(1781.79 104.756) rotate(180) scale(1277.02 1388.32)">
<stop stop-color="#F9BBC9"/>
<stop offset="0.0301" stop-color="#FC8196"/>
<stop offset="0.2023" stop-color="#FC8196"/>
<stop offset="0.3737" stop-color="#FC8196"/>
<stop offset="0.5413" stop-color="#D7E9FF"/>
<stop offset="0.7039" stop-color="#F9BBC9"/>
<stop offset="0.8594" stop-color="#FC8196"/>
<stop offset="1" stop-color="#D7E9FF"/>
</radialGradient>
</defs>
</svg>
