<svg width="428" height="1554" viewBox="0 0 428 1554" fill="none" xmlns="http://www.w3.org/2000/svg">
<path opacity="0.15" d="M54.9344 2.32577C59.0305 -0.775256 65.6702 -0.775256 69.7662 2.32577C72.8384 4.65153 73.5983 8.05405 72.0457 10.8967L301.726 183.779V402.013L357.685 444.135V681.493L549.344 825.776L579.206 803.294L431.415 692.045V561.931L432.01 561.5L600.05 435.005V390.858L505.014 319.319C500.917 321.559 495.17 321.3 491.47 318.544C487.374 315.443 487.374 310.447 491.47 307.389C495.566 304.288 502.206 304.288 506.302 307.389C510.001 310.188 510.332 314.495 507.359 317.596L602.396 389.135V436.814L601.801 437.244L433.761 563.74V690.322L545.413 774.394V720.169L494.212 681.622C490.115 683.862 484.368 683.603 480.668 680.847C476.572 677.746 476.572 672.75 480.668 669.692C484.764 666.591 491.404 666.591 495.5 669.692C499.2 672.491 499.53 676.798 496.557 679.899L547.759 718.447V776.203L581.519 801.614L621.456 771.552V677.143L546.14 620.42V555.169L546.735 554.739L705.328 435.349C702.355 432.248 702.685 427.941 706.385 425.142C710.481 422.041 717.12 422.041 721.217 425.142C725.313 428.243 725.313 433.239 721.217 436.297C717.517 439.096 711.769 439.312 707.673 437.072L548.518 556.892V618.611L621.489 673.568V608.49L622.084 608.059L719.103 535.013C716.13 531.912 716.46 527.605 720.16 524.805C724.256 521.704 730.896 521.704 734.992 524.805C739.088 527.906 739.088 532.902 734.992 535.96C731.292 538.76 725.544 538.975 721.448 536.735L623.834 610.212V769.7L651.88 748.595L698.093 783.396L739.947 751.869V675.291L740.541 674.86L851.203 591.563V519.378C848.924 519.206 846.71 518.474 844.96 517.139C840.864 514.038 840.864 509.042 844.96 505.984C849.056 502.883 855.695 502.883 859.792 505.984C863.888 509.085 863.888 514.081 859.792 517.139C858.041 518.474 855.828 519.163 853.548 519.378V593.329L852.954 593.76L742.292 677.057V750.103L922.39 614.519V470.796L824.71 397.275H735.058L734.793 397.06L580.957 281.289C576.861 283.528 571.113 283.27 567.414 280.513C563.317 277.412 563.317 272.416 567.414 269.358C571.51 266.257 578.149 266.257 582.245 269.358C585.945 272.158 586.276 276.465 583.302 279.566L735.685 394.261H820.647L538.047 181.539C533.951 183.779 528.203 183.52 524.503 180.764C520.407 177.663 520.407 172.667 524.503 169.609C528.599 166.508 535.239 166.508 539.335 169.609C543.035 172.408 543.365 176.715 540.392 179.816L924.735 469.116V616.371L924.141 616.802L700.406 785.205L745.43 819.101L1127.43 531.567V359.977L1128.02 359.546L1257.94 261.778C1254.97 258.677 1255.3 254.37 1259 251.57C1263.1 248.469 1269.74 248.469 1273.83 251.57C1277.93 254.672 1277.93 259.668 1273.83 262.726C1270.13 265.525 1264.38 265.74 1260.29 263.501L1129.81 361.743V533.333L1129.21 533.764L747.809 820.867L790.686 853.126L1168.46 568.736H1393.74L1534.53 462.742V299.852C1533.04 299.464 1531.66 298.861 1530.47 298C1526.37 294.899 1526.37 289.903 1530.47 286.845C1534.56 283.744 1541.2 283.744 1545.3 286.845C1549.4 289.946 1549.4 294.942 1545.3 298C1542.99 299.722 1539.88 300.455 1536.88 300.239V464.507L1536.28 464.938L1394.34 571.794H1169.05L850.146 811.865H914.297L1023.14 729.946H1106.98L1107.24 730.162L1223.52 817.679C1227.62 815.44 1233.37 815.698 1237.07 818.455C1241.16 821.556 1241.16 826.552 1237.07 829.61C1232.97 832.711 1226.33 832.711 1222.23 829.61C1218.53 826.81 1218.2 822.503 1221.18 819.402L1106.35 732.961H1023.77L914.924 814.88H846.083L792.998 854.849L907.426 940.988L939.964 916.481V852.178L1022.71 789.943C1019.74 786.841 1020.07 782.534 1023.77 779.735C1027.87 776.634 1034.5 776.634 1038.6 779.735C1042.7 782.836 1042.7 787.832 1038.6 790.89C1034.9 793.69 1029.15 793.905 1025.06 791.665L942.408 853.901V914.673L1030.57 848.302H1072.33L1072.59 848.517L1122.37 885.988C1126.47 883.748 1132.22 884.007 1135.92 886.763C1140.01 889.864 1140.01 894.86 1135.92 897.918C1131.82 901.019 1125.18 901.019 1121.09 897.918C1117.39 895.119 1117.06 890.812 1120.03 887.711L1071.7 851.317H1031.23L909.903 942.625L931.936 959.207L861.608 1012.14L894.543 1036.95H944.357L980 1010.12C977.159 1007.06 977.555 1002.79 981.189 1000.04C985.285 996.936 991.925 996.936 996.021 1000.04C1000.12 1003.14 1000.12 1008.13 996.021 1011.19C992.288 1013.99 986.441 1014.21 982.312 1011.88L944.984 1039.96H898.606L982.609 1103.19L1180.21 954.426H1322.42L1322.69 954.641L1402.76 1014.9C1406.86 1012.66 1412.6 1012.91 1416.3 1015.67C1420.4 1018.77 1420.4 1023.77 1416.3 1026.83C1412.21 1029.93 1405.57 1029.93 1401.47 1026.83C1397.77 1024.03 1397.44 1019.72 1400.42 1016.62L1321.8 957.441H1180.88L1028.46 1072.18H1093.7L1157.45 1024.2C1154.48 1021.1 1154.81 1016.79 1158.51 1013.99C1162.61 1010.89 1169.25 1010.89 1173.34 1013.99C1177.44 1017.09 1177.44 1022.09 1173.34 1025.15C1169.64 1027.95 1163.9 1028.16 1159.8 1025.92L1094.33 1075.24H1024.4L984.988 1104.91L1085.31 1180.41H1405.93L1655.04 992.887C1652.06 989.786 1652.39 985.479 1656.09 982.68C1660.19 979.579 1666.83 979.579 1670.93 982.68C1675.02 985.781 1675.02 990.777 1670.93 993.835C1667.23 996.634 1661.48 996.85 1657.38 994.61L1406.56 1183.43H1089.37L1129.18 1213.4H1366.52L1366.79 1213.62L1483.82 1301.74C1487.92 1299.5 1493.67 1299.76 1497.37 1302.52C1501.46 1305.62 1501.46 1310.61 1497.37 1313.67C1493.27 1316.77 1486.63 1316.77 1482.54 1313.67C1478.84 1310.87 1478.51 1306.56 1481.48 1303.46L1365.86 1216.46H1128.52L1128.25 1216.25L859.263 1013.78L829.401 1036.26L1112.2 1249.15H1319.02L1319.29 1249.37L1569.08 1437.41H1915.17L1982 1387.28V1390.81L1915.74 1440.68H1568.39L1568.13 1440.47L1411.35 1322.46V1392.32L1514.68 1470.1C1518.77 1467.86 1524.52 1468.12 1528.22 1470.88C1532.32 1473.98 1532.32 1478.97 1528.22 1482.03C1524.12 1485.13 1517.49 1485.13 1513.39 1482.03C1509.69 1479.23 1509.36 1474.92 1512.33 1471.82L1409 1394.04V1321.08H1409.53L1318.29 1252.38H1111.47L1111.21 1252.17L826.956 1038.2L793.031 1063.74L1344.56 1478.89V1553.91H1342.21V1480.65L790.686 1065.5L748.767 1097.07L1033.25 1311.22V1349.5L1083.69 1387.49V1475.57L1181.5 1549.22C1185.6 1546.98 1191.35 1547.24 1195.05 1549.99C1196.53 1551.11 1197.49 1552.49 1197.89 1553.96H1177.44C1177.74 1552.88 1178.3 1551.89 1179.16 1550.99L1081.35 1477.34V1389.26L1033.25 1353.04V1494.05L1004.87 1515.41L1056.08 1554H1051.38L1002.59 1517.26L953.804 1554H949.114L1031 1492.37V1313.07L746.52 1098.92L708.367 1127.65L909.705 1279.22C913.801 1276.98 919.549 1277.23 923.249 1279.99C927.345 1283.09 927.345 1288.09 923.249 1291.15C919.152 1294.25 912.513 1294.25 908.417 1291.15C904.717 1288.35 904.386 1284.04 907.359 1280.94L706.021 1129.38L669.189 1157.11L910.035 1338.39H975.474C975.871 1336.93 976.829 1335.51 978.348 1334.34C982.444 1331.24 989.084 1331.24 993.18 1334.34C997.276 1337.45 997.276 1342.44 993.18 1345.5C989.084 1348.6 982.444 1348.6 978.348 1345.5C976.829 1344.34 975.871 1342.92 975.474 1341.45H909.408L909.143 1341.24L666.877 1158.88L652.012 1170.08L640.582 1161.46L582.873 1204.88V1265.35L630.54 1301.22V1301.05H705.361L705.625 1301.27L787.713 1363.07C791.809 1360.83 797.557 1361.09 801.256 1363.85C805.353 1366.95 805.353 1371.94 801.256 1375C797.16 1378.1 790.521 1378.1 786.425 1375C782.725 1372.2 782.394 1367.9 785.367 1364.79L704.733 1304.11H634.405L774.566 1409.59C778.695 1407.18 784.608 1407.35 788.406 1410.19C792.503 1413.29 792.503 1418.29 788.406 1421.35C784.31 1424.45 777.671 1424.45 773.575 1421.35C769.974 1418.63 769.544 1414.45 772.286 1411.35L597.474 1279.77V1308.85L701.463 1387.15V1442.41L786.127 1506.15C790.223 1503.91 795.971 1504.17 799.671 1506.92C803.767 1510.03 803.767 1515.02 799.671 1518.08C795.575 1521.18 788.935 1521.18 784.839 1518.08C781.139 1515.28 780.809 1510.97 783.782 1507.87L699.117 1444.13V1388.87L595.129 1310.57V1277.97L580.561 1266.98V1202.98L638.27 1159.57L600.348 1131.01L481.626 1220.38V1321.98L562.26 1382.67C566.39 1380.26 572.302 1380.43 576.101 1383.27C580.197 1386.37 580.197 1391.37 576.101 1394.43C572.005 1397.53 565.365 1397.53 561.269 1394.43C557.669 1391.71 557.239 1387.54 559.981 1384.43L481.659 1325.47V1407.56L543.53 1454.16V1553.83H541.185V1455.93L481.659 1411.09V1553.78H479.314V1218.57L598.036 1129.2L555.455 1097.16L400.265 1213.96V1492.19L325.676 1548.36V1553.83H323.33V1546.59L397.919 1490.43V1212.2L553.11 1095.39L521.563 1071.62L312.132 1229.25V1466.61L196.152 1554H191.461L309.588 1465.06V1227.7L519.02 1070.07L467.884 1031.56L119.416 1293.86V1411.96L0 1501.84V1498.31L117.07 1410.19V1292.09L313.057 1144.54H158.064L0 1263.54V1260.01L157.437 1141.48H317.12L465.506 1029.8L406.046 985.048L278.504 1081.05H73.6973L0 1136.52V1132.99L16.1532 1120.85H0V1117.79H20.2163L73.0697 1077.99H277.876L313.585 1051.12H226.51L226.245 1050.9L182.575 1018.04H0.594482L0 1018.51V1014.98H178.512L129.358 977.985C125.262 980.225 119.515 979.966 115.815 977.21C111.719 974.109 111.719 969.113 115.815 966.055C119.911 962.954 126.551 962.954 130.647 966.055C134.346 968.854 134.677 973.161 131.704 976.262L227.17 1048.15H317.682L403.766 983.369L371.955 959.422L392.436 944.003H332.943L255.182 1002.53C258.155 1005.64 257.825 1009.94 254.125 1012.74C250.029 1015.84 243.39 1015.84 239.293 1012.74C235.197 1009.64 235.197 1004.65 239.293 1001.59C242.993 998.788 248.741 998.572 252.837 1000.81L332.315 940.988H396.499L440.037 908.212L413.28 888.055H365.811L324.057 856.615H292.906L222.546 909.59C225.717 912.691 225.452 917.127 221.687 919.97C217.59 923.071 210.951 923.071 206.855 919.97C202.758 916.869 202.758 911.873 206.855 908.815C210.488 906.102 216.071 905.8 220.167 907.867L292.279 853.6H324.685L366.439 885.04H409.217L323.627 820.608H277.414L181.089 893.095H0.032959V890.037H180.461L276.786 817.55H324.255L324.519 817.766L442.382 906.489L473.302 883.232L340.111 782.965H246.164L168.668 841.282H0V838.224H168.007L241.441 782.965H0V779.907H340.706L340.97 780.123L475.581 881.466L510.728 855.021L325.015 715.216H0V712.158H236.849L0 533.85V530.318L241.54 712.158H323.297L147.23 579.633V550.432L62.9615 487.033C58.8654 489.272 53.1176 489.014 49.4178 486.258C45.3217 483.157 45.3217 478.16 49.4178 475.103C53.514 472.001 60.1537 472.001 64.2499 475.103C67.9496 477.902 68.2799 482.209 65.3069 485.31L111.19 519.852V439.785L0 355.799V352.268L113.569 437.761V521.359L149.608 548.493V577.695L327.129 711.34L326.534 712.675L513.107 853.126L547.032 827.585L355.373 683.302V445.944L0 178.395V174.863L299.381 400.247V185.545L70.2289 13.0501C70.0637 13.1794 69.9314 13.3516 69.7662 13.4808C65.6702 16.5819 59.0305 16.5819 54.9344 13.4808C50.8383 10.3798 50.8383 5.38372 54.9344 2.32577ZM376.613 959.336L651.913 1166.59L927.18 959.379L651.88 752.127L376.613 959.336Z" fill="url(#paint0_radial_1689_4317)"/>
<defs>
<radialGradient id="paint0_radial_1689_4317" cx="0" cy="0" r="1" gradientUnits="userSpaceOnUse" gradientTransform="translate(-42.9439 234.316) scale(1451.29 1892.24)">
<stop stop-color="#F9BBC9"/>
<stop offset="0.0301" stop-color="#FC8196"/>
<stop offset="0.2023" stop-color="#FC8196"/>
<stop offset="0.3737" stop-color="#FC8196"/>
<stop offset="0.5413" stop-color="#D7E9FF"/>
<stop offset="0.7039" stop-color="#F9BBC9"/>
<stop offset="0.8594" stop-color="#FC8196"/>
<stop offset="1" stop-color="#D7E9FF"/>
</radialGradient>
</defs>
</svg>
